<?xml version="1.0" encoding="UTF-8"?>
<svg width="34px" height="49px" viewBox="0 0 34 49" version="1.1" xmlns="http://www.w3.org/2000/svg" xmlns:xlink="http://www.w3.org/1999/xlink">
    <!-- Generator: Sketch 60 (88103) - https://sketch.com -->
    <title>iconFlatForeground</title>
    <desc>Created with Sketch.</desc>
    <g id="iconduit" stroke="none" stroke-width="1" fill="none" fill-rule="evenodd">
        <g id="iconFlatForeground">
            <g id="AceOfSpades">
                <path d="M7.00884238,31.0910351 C7.00268167,31.0049436 6.99960131,30.9201182 7,30.8369808 C7,28.8298668 8.62471003,27.1430638 10.7400357,27.0105504 C10.8504885,27.0029541 10.9596212,27 11.0674337,27 C13.653614,27 15.8283466,28.9265087 15.9990864,31.4366673 L15.9995265,31.4366673 C16.0074474,31.553144 15.9150367,31.6535841 15.7944626,31.6607584 C15.6725685,31.6683547 15.5682764,31.5801531 15.5603555,31.4640984 C15.4054575,29.177609 13.4221472,27.4215952 11.0674337,27.4215952 C10.9684222,27.4215952 10.8694107,27.4249714 10.7699592,27.4317236 C8.88566034,27.5486224 7.44009247,29.0522698 7.44009247,30.8369808 C7.44009247,30.9116778 7.44229272,30.9867969 7.44801339,31.06276 C7.54394453,32.4858021 8.77828787,33.5779828 10.243658,33.5779828 C10.3048251,33.5779828 10.3673124,33.5758727 10.4293596,33.5724965 C11.5937348,33.5003316 12.4865985,32.5706276 12.4865985,31.4683186 C12.4865985,31.4223187 12.4848383,31.3758968 12.4817579,31.3294749 C12.4227911,30.4588533 11.6672234,29.789956 10.7712793,29.789956 C10.7325548,29.789956 10.6960306,29.7908 10.6577461,29.7937541 C9.95454447,29.838066 9.41460176,30.3985049 9.41460176,31.063604 C9.41460176,31.0927232 9.41548187,31.1193103 9.41768212,31.1484295 C9.45244616,31.6654006 9.90173833,32.0620968 10.4342002,32.0620968 C10.4557627,32.0620968 10.4795254,32.0612528 10.5010879,32.0612528 C10.9090153,32.0355097 11.2223317,31.7097124 11.2223317,31.3235666 C11.2223317,31.307108 11.2214516,31.2893833 11.2205715,31.2741906 C11.2012092,30.9834208 10.9481799,30.7601736 10.6489451,30.7601736 C10.6335433,30.7601736 10.6238622,30.7601736 10.6119808,30.7614397 C10.3919553,30.7753663 10.2238557,30.9505034 10.2238557,31.1572919 C10.2238557,31.1674203 10.2242958,31.1741725 10.2247358,31.1792368 C10.2357371,31.2952915 10.1464067,31.3978417 10.0249526,31.4083921 C9.90393859,31.4180985 9.79700617,31.332429 9.78644494,31.2172183 C9.78424469,31.1935853 9.78380464,31.1737505 9.78380464,31.1572919 C9.78380464,30.7281003 10.131005,30.3689636 10.5754566,30.3406885 C10.6058201,30.3381564 10.6300229,30.3381564 10.6489451,30.3381564 C11.1796467,30.3381564 11.6245384,30.7327425 11.6597425,31.2492916 C11.6610626,31.2725026 11.6619427,31.2974016 11.6619427,31.3235666 C11.6619427,31.9312715 11.1708457,32.4414903 10.5239706,32.482426 C10.4966874,32.48327 10.4667639,32.4841141 10.4342002,32.4849581 C9.67115156,32.4841141 9.029117,31.9169229 8.97895117,31.1779707 C8.97631086,31.1383011 8.97499071,31.1003195 8.97499071,31.063604 C8.97499071,30.1769458 9.69315411,29.4316634 10.6247423,29.373003 C10.6762283,29.3692048 10.7250739,29.3683608 10.7712793,29.3679387 C11.8991303,29.3683608 12.8456802,30.2077531 12.9209289,31.3028878 C12.9244494,31.357328 12.9266496,31.4126123 12.9266496,31.4683186 C12.9266496,32.7926087 11.8546851,33.9058902 10.4570828,33.9940918 C10.3862346,33.9974679 10.3153864,33.999578 10.243658,34 C8.54770109,33.999578 7.12149547,32.7364804 7.00884238,31.0910351" id="Fill-10" fill="#FFFFFF"></path>
                <path d="M23.5434769,33.9940914 C22.1469464,33.9058845 21.0759793,32.7929579 21.0759793,31.4694321 C21.0759793,31.4141445 21.0773009,31.3580128 21.082147,31.3023031 C21.1561587,30.2083685 22.1033323,29.3685036 23.2302488,29.3685036 C23.2760655,29.3685036 23.3249661,29.3693476 23.3721045,29.372724 C24.3082646,29.43181 25.0254733,30.1771373 25.0254733,31.063849 C25.0254733,31.1018329 25.0241516,31.1381285 25.0215084,31.1765344 C24.9717267,31.9167973 24.3302919,32.4844447 23.5668258,32.4844447 C23.5337849,32.4844447 23.5038278,32.4836006 23.4716679,32.4823345 C22.8311142,32.4413964 22.3390244,31.9311468 22.3390244,31.3238273 C22.3390244,31.2997709 22.3394649,31.2719161 22.3421082,31.2474376 C22.3769113,30.7333896 22.8214222,30.3383577 23.3518394,30.3383577 C23.3707829,30.3383577 23.3954535,30.3383577 23.4188024,30.3404679 C23.8708025,30.3695888 24.2170716,30.7287471 24.2170716,31.1583866 C24.2170716,31.1782226 24.216631,31.1934161 24.2161905,31.2048113 C24.2122256,31.3217171 24.1104595,31.4128783 23.9888688,31.409502 C23.8672781,31.4057036 23.7716797,31.3077897 23.7756446,31.191728 C23.7760851,31.1756903 23.7765257,31.1647172 23.7765257,31.1583866 C23.7765257,30.9503195 23.6082371,30.7755939 23.3831182,30.7612444 C23.3769505,30.7604003 23.3672585,30.7604003 23.3518394,30.7604003 C23.0535898,30.7604003 22.8007165,30.9836609 22.7808919,31.2820451 C22.7795703,31.290908 22.7791298,31.3056795 22.7791298,31.3238273 C22.7791298,31.7095743 23.093239,32.0358133 23.4945763,32.0607139 C23.5214496,32.0615579 23.5456796,32.0632461 23.5668258,32.062402 C24.0985647,32.0632461 24.547481,31.6661039 24.5822841,31.1507898 C24.5840463,31.1195587 24.5849274,31.0912818 24.5849274,31.063849 C24.5849274,30.3987098 24.0456992,29.837815 23.3395041,29.7939226 C23.3051416,29.7909683 23.2685762,29.7901242 23.2302488,29.7901242 C22.3359406,29.7901242 21.5804044,30.4590619 21.5213712,31.3322682 C21.5178468,31.3765827 21.5160847,31.4225853 21.5160847,31.4694321 C21.5160847,32.5713855 22.4095117,33.5003015 23.5703502,33.5728928 C23.6337888,33.5758471 23.6959058,33.5783794 23.7571416,33.5783794 C25.2210757,33.5783794 26.4550447,32.4861329 26.5515243,31.063427 C26.5563703,30.9866152 26.5590136,30.9110696 26.5590136,30.8367901 C26.5594541,29.0519715 25.114023,27.5486555 23.2311298,27.4313276 C23.1315665,27.424997 23.0328842,27.4216206 22.9333208,27.4220427 C20.5803652,27.4216206 18.5943843,29.1777403 18.4401932,31.4643675 L18.4401932,31.4647896 C18.4318228,31.5808513 18.3269729,31.6690582 18.2058228,31.6614615 C18.0842321,31.6538647 17.992158,31.5529965 18.0005284,31.4365127 C18.1710197,28.9266249 20.3481975,27 22.9333208,27 C23.040814,27 23.1500694,27.0029543 23.2602059,27.0105511 C25.3770289,27.1430725 27,28.8303991 27,30.8367901 C27,30.9203545 26.9969162,31.0047631 26.9911891,31.0904377 C26.8788499,32.7368262 25.4532434,34 23.7571416,34 C23.6857732,34 23.6148453,33.9978898 23.5434769,33.9940914" id="Fill-11" fill="#FFFFFF"></path>
                <path d="M16.9568412,34 C16.8982725,34 16.8427863,33.976215 16.8009515,33.933219 C16.7591167,33.890223 16.736658,33.8325901 16.736658,33.7712979 C16.7370984,33.7356204 16.7384195,33.7004002 16.7406213,33.6651801 C16.6952636,32.8198971 16.020182,31.929331 15.6661275,31.5441967 C15.544146,31.4092624 15.4688434,31.3369926 15.468403,31.3369926 C15.4045499,31.2766152 15.3807701,31.1837621 15.4067517,31.0977702 C15.4071921,31.0950257 15.8233383,29.7452258 16.1351176,28.287936 C16.349576,27.2953688 16.5155941,26.2241281 16.7551534,25.3280732 C16.6591536,24.980446 16.5565482,24.6643796 16.4442548,24.3935963 C16.4394108,24.380789 16.4350071,24.3670669 16.4323649,24.3538022 C15.9875949,23.1956547 14.9302753,22.4569468 13.8024972,22.4578616 C13.5034884,22.4578616 13.1983146,22.5095483 12.897104,22.6197827 C12.0005182,22.9463694 11.4403722,23.8213836 11.4399318,24.7549457 C11.4403722,25.0046884 11.4800052,25.2580903 11.5645555,25.5069182 C11.8098395,26.2323613 12.4668661,26.6870212 13.1674889,26.6870212 C13.355085,26.6870212 13.5448829,26.6550029 13.7315982,26.5863922 C14.2728084,26.3883362 14.6110098,25.8595769 14.6114501,25.2974271 C14.6110098,25.1464837 14.5876703,24.9937107 14.5361475,24.8432247 C14.3903862,24.4118925 14.000662,24.1429388 13.5849562,24.1429388 C13.4739839,24.1429388 13.3616905,24.1616924 13.2502778,24.2028588 C12.9362966,24.3167524 12.7403336,24.6232133 12.7398932,24.9502573 C12.7398932,25.0371641 12.7544253,25.1254431 12.7839299,25.2132647 C12.8653976,25.4543168 13.0847001,25.6057176 13.3176538,25.6057176 C13.3801859,25.6057176 13.4435986,25.5951973 13.5056903,25.5727844 C13.6739102,25.5110349 13.7791578,25.3463694 13.7791578,25.1716409 C13.7791578,25.1254431 13.7716715,25.0778731 13.7558183,25.0312178 C13.7144239,24.9095483 13.6052131,24.8349914 13.4889563,24.834534 C13.4576903,24.834534 13.4268647,24.8395655 13.394718,24.851458 C13.3194153,24.8784448 13.2727365,24.9516295 13.2722961,25.030303 C13.2727365,25.0504288 13.2762594,25.0714694 13.2837456,25.09251 L13.2837456,25.0934248 C13.323819,25.2123499 13.2634888,25.3427101 13.1485532,25.3847913 C13.0336176,25.4264151 12.9081132,25.3637507 12.8680398,25.2443682 C12.84426,25.1743854 12.8319298,25.1021155 12.8323702,25.030303 C12.8319298,24.7627216 12.9931039,24.5129788 13.2485163,24.4201258 C13.3269015,24.3908519 13.4088097,24.3771298 13.4889563,24.3771298 C13.7870844,24.3771298 14.0662766,24.5701544 14.1710838,24.8793596 C14.2041113,24.9758719 14.2195241,25.0746712 14.2195241,25.1716409 C14.2195241,25.5361921 14.0011024,25.8751286 13.6518919,26.004574 C13.5413599,26.0443682 13.4281858,26.0631218 13.3176538,26.0631218 C12.901948,26.0631218 12.5144257,25.7941681 12.3686644,25.3651229 C12.3219856,25.2283591 12.2995269,25.0883934 12.2995269,24.9502573 C12.2990865,24.4343053 12.6095448,23.9517439 13.1040762,23.771984 C13.2626081,23.7134362 13.4251032,23.6855346 13.5849562,23.6855346 C14.1825333,23.6855346 14.7413582,24.0724986 14.9518533,24.6909091 C15.0196697,24.8912521 15.0518165,25.0957118 15.0518165,25.2974271 C15.0518165,26.0493997 14.5995602,26.7528874 13.8777998,27.017267 C13.6430846,27.1037164 13.4035253,27.1444254 13.1674889,27.1444254 C12.2845544,27.1444254 11.4588676,26.5722127 11.1488497,25.6587764 C11.0484462,25.3600915 10.9995655,25.0550029 11.0000029,24.7549457 C10.9995655,23.6320183 11.6737663,22.5818182 12.7509024,22.1884505 C13.0992321,22.0608348 13.453727,22 13.8024972,22 C15.1302017,22.0009148 16.3570623,22.8740995 16.8573184,24.2271012 C16.8599606,24.2348771 16.8626028,24.2426529 16.8648046,24.2508862 C16.9075202,24.3579188 16.949355,24.4699828 16.9894283,24.5870783 C17.0413915,24.4507719 17.0964373,24.3222413 17.1563271,24.2028588 C17.7979409,22.9280732 18.9398108,22.0100629 20.2521024,22.0073185 C20.5784139,22.0073185 20.913973,22.0649514 21.2499725,22.1884505 C22.3266682,22.5822756 23.0004287,23.6324757 22.9999913,24.7549457 C23.0004287,25.0545455 22.9519884,25.3591767 22.8511445,25.6587764 C22.5411266,26.5726701 21.7158801,27.1444254 20.8329456,27.143968 C20.5969093,27.1444254 20.3569096,27.103259 20.1226347,27.017267 C19.4004339,26.7533448 18.9486181,26.0498571 18.9490585,25.2974271 C18.9486181,25.0957118 18.9807648,24.8907947 19.0490216,24.6918239 C19.258636,24.072956 19.8179012,23.6855346 20.4154783,23.6855346 C20.5748909,23.6855346 20.7373861,23.7129788 20.8967987,23.771984 C21.3913301,23.9526587 21.7004673,24.4343053 21.7000269,24.9502573 C21.7000269,25.087936 21.6775682,25.2274443 21.6317701,25.3651229 C21.4864492,25.7950829 21.0980461,26.0640366 20.6823403,26.0631218 C20.5709277,26.0640366 20.4581939,26.0439108 20.348983,26.004574 C19.9993322,25.8765009 19.7809105,25.5361921 19.7813508,25.1716409 C19.7809105,25.0751286 19.7954425,24.9754145 19.8293508,24.8793596 C19.9341579,24.5701544 20.2133502,24.3771298 20.5119186,24.3771298 C20.5903038,24.3771298 20.6726523,24.3899371 20.7519182,24.4201258 C21.0077711,24.5143511 21.1680644,24.7627216 21.167624,25.030303 C21.1680644,25.1025729 21.1557341,25.173928 21.1341562,25.2425386 C21.0949636,25.3614637 20.9698995,25.4259577 20.8545236,25.3857061 C20.7391476,25.3454545 20.6774963,25.2160091 20.7166889,25.0961692 C20.7246155,25.0714694 20.7272577,25.0490566 20.7276981,25.030303 C20.7272577,24.9520869 20.6810192,24.8784448 20.6043955,24.8510006 C20.5735698,24.8395655 20.5436249,24.834534 20.5119186,24.834534 C20.3952215,24.834534 20.2855703,24.9100057 20.2441758,25.0330475 C20.228763,25.0774157 20.2217172,25.1240709 20.2212768,25.1716409 C20.2217172,25.3468268 20.3265243,25.5114923 20.4943039,25.572327 C20.5563956,25.5951973 20.620689,25.6057176 20.6823403,25.6057176 C20.9157345,25.6057176 21.1350369,25.4552316 21.2160643,25.2141795 C21.2460092,25.1254431 21.2596606,25.0367067 21.2596606,24.9502573 C21.2596606,24.6236707 21.0641379,24.3167524 20.7501567,24.2028588 C20.6387441,24.1616924 20.5264507,24.1429388 20.4154783,24.1429388 C20.0002129,24.1429388 19.6100483,24.4123499 19.4642871,24.8441395 C19.4132046,24.9937107 19.3894248,25.1464837 19.3894248,25.2974271 C19.3894248,25.8595769 19.7276261,26.3883362 20.2688364,26.5863922 C20.455992,26.6540881 20.6457899,26.6865638 20.8329456,26.6865638 C21.5335684,26.6865638 22.1901546,26.2328188 22.4358791,25.5073756 C22.5195487,25.2571755 22.559622,25.004231 22.559622,24.7549457 C22.559622,23.8218411 21.999476,22.9468268 21.1033305,22.6193253 C20.8126888,22.5132075 20.5290929,22.4647227 20.2521024,22.4647227 C19.1503059,22.4619783 18.1335,23.2505432 17.545611,24.4150943 C17.4196662,24.66255 17.3108957,24.9744997 17.212694,25.3280732 C17.453134,26.2264151 17.6468952,27.2747856 17.8626747,28.2824471 C18.1586009,29.6638079 18.5478847,30.9495712 18.5883984,31.081761 C18.6236277,31.1718696 18.6002883,31.2766152 18.5276279,31.3415666 C18.5276279,31.3415666 18.4461601,31.4142939 18.3175731,31.5487707 C18.1889862,31.6841624 18.0168029,31.8776444 17.8450601,32.1100057 C17.5213908,32.5472842 17.212694,33.1208691 17.1796666,33.6674671 C17.181428,33.7022298 17.1827491,33.7369926 17.1831895,33.7712979 C17.1831895,33.8325901 17.1602904,33.890223 17.118896,33.933219 C17.0775016,33.976215 17.0220154,34 16.9630063,34 L16.9568412,34 Z M16.9660889,32.7430532 C17.2950425,31.9558605 17.8886563,31.3383648 18.1321789,31.1000572 C18.0198855,30.7226987 17.6913722,29.5910806 17.4333176,28.3817038 C17.2818315,27.6699828 17.1395932,26.9413379 16.9876668,26.2694111 C16.8449881,26.9431675 16.7146397,27.6827902 16.5649152,28.3871927 C16.3064201,29.5951973 15.9796683,30.7254431 15.8664942,31.1041738 C16.0954847,31.3415666 16.6547499,31.9595197 16.9660889,32.7430532 L16.9660889,32.7430532 Z" id="Fill-12" fill="#FFFFFF"></path>
                <path d="M21.2863189,16 C20.4419373,16 19.5933243,15.7084126 18.9228966,15.1171131 C18.310767,14.5795271 17.9995305,13.8410797 18,13.1026324 C17.9995305,12.4440782 18.2477674,11.7805589 18.7489427,11.2574169 C19.2063945,10.7776066 19.8340389,10.5334135 20.4616834,10.5338649 C21.0211567,10.5334135 21.5853316,10.7284069 22.0314998,11.1206506 C22.4414668,11.4808468 22.6497414,11.975101 22.6492712,12.4698065 C22.6497414,12.9103472 22.4833098,13.3549503 22.1480959,13.7056676 C21.8387401,14.0297539 21.4137284,14.1954081 20.989657,14.1949567 C20.6102494,14.1949567 20.2284911,14.063607 19.9280681,13.7981992 C19.6473911,13.5517492 19.5039967,13.213219 19.5044668,12.8746887 C19.5039967,12.5731711 19.6182421,12.2684939 19.8476732,12.0292658 C20.0620596,11.8040304 20.3573111,11.6889301 20.6516223,11.6889301 C20.9139635,11.6889301 21.1791257,11.7805589 21.3878704,11.9647194 C21.5858017,12.1380469 21.686883,12.3781777 21.6864129,12.6156002 C21.6864129,12.8286486 21.606018,13.0425997 21.444758,13.2123162 C21.2910204,13.3730052 21.0785145,13.4551553 20.8678893,13.4551553 C20.6793608,13.4551553 20.4889518,13.3897061 20.3394455,13.257905 C20.2435358,13.1734981 20.2369538,13.030864 20.3253412,12.9392351 C20.4127882,12.8471549 20.5613543,12.8408357 20.657264,12.9252426 C20.7174426,12.9785047 20.7917257,13.0037816 20.8678893,13.0037816 C20.9534558,13.0037816 21.0362014,12.9717341 21.0977905,12.9071876 C21.1777153,12.8232321 21.2162672,12.7198675 21.2162672,12.6156002 C21.2157971,12.4977917 21.1683123,12.3831428 21.070522,12.2978332 C20.9501648,12.1922117 20.8015987,12.1412065 20.6516223,12.1407551 C20.48284,12.1412065 20.3173487,12.2053016 20.1937004,12.3343944 C20.0465448,12.4883129 19.9750826,12.6801467 19.9746125,12.8746887 C19.9750826,13.0927022 20.0653506,13.3066533 20.2458865,13.4655368 C20.4569819,13.6519542 20.7221441,13.7431317 20.989657,13.7431317 C21.2886696,13.7431317 21.5839211,13.6280314 21.8015986,13.4009904 C22.0550071,13.1346799 22.1786554,12.8024689 22.1791255,12.4698065 C22.1786554,12.0956178 22.0235073,11.7254914 21.7141515,11.4537644 C21.3563706,11.139157 20.9092621,10.9852385 20.4616834,10.9852385 C19.9595678,10.9852385 19.4612134,11.1788778 19.0949699,11.5625455 C18.6760701,12.0003779 18.4701463,12.5515052 18.4701463,13.1026324 C18.4701463,13.720563 18.7291966,14.3348825 19.2407151,14.7849021 C19.8222853,15.2963084 20.5543021,15.5486263 21.2863189,15.5486263 C22.106253,15.5486263 22.9214855,15.231762 23.519981,14.6066095 C24.1960505,13.8970501 24.5293837,13.0046843 24.5298539,12.1132213 C24.5293837,11.1143314 24.1109541,10.120858 23.284438,9.39188948 L23.284438,9.39279223 C23.1885283,9.30793398 23.1819463,9.1652999 23.2693933,9.07321967 C23.3573106,8.98113944 23.5063468,8.97527159 23.6017863,9.05922709 C24.5293837,9.87576206 25.0004697,10.9933633 25,12.1132213 C25.0004697,13.1125626 24.6243532,14.1164177 23.8660082,14.9117381 C23.1767746,15.6330332 22.2327221,16 21.2877293,16 C21.2872592,16 21.2867891,16 21.2863189,16" id="Fill-13" fill="#FFFFFF"></path>
                <path d="M10.1331546,14.9113292 C9.37489971,14.1160398 8.99953064,13.112224 9,12.113373 C8.99953064,10.9935587 9.47073862,9.87554973 10.3971814,9.05904663 L10.3976512,9.05904663 C10.4934901,8.97554576 10.6414767,8.98096203 10.729329,9.07303867 C10.8167116,9.1651153 10.811074,9.30774381 10.7152351,9.39169604 C9.88838956,10.1201847 9.46979902,11.1136194 9.46932923,12.113373 C9.46979902,13.0043499 9.80288622,13.8966808 10.479866,14.6057612 C11.07698,15.231792 11.8920805,15.5481926 12.7123488,15.5481926 C13.444295,15.5481926 14.1771808,15.2958846 14.7597311,14.7844982 C15.2718115,14.3340448 15.5306705,13.7202006 15.5306705,13.1022941 C15.5306705,12.5511884 15.324429,12.000534 14.9053686,11.5618159 C14.5389257,11.1786146 14.0404694,10.9854343 13.5368454,10.9849829 C13.0881877,10.9854343 12.6404697,11.1393467 12.2838925,11.4530391 C11.9747651,11.7252068 11.8187919,12.0957701 11.8187919,12.469493 C11.8187919,12.8025937 11.9428188,13.1343404 12.1960402,13.4001891 C12.4140267,13.6281239 12.7095301,13.7427684 13.008322,13.7432197 C13.2756373,13.7432197 13.5415433,13.6520458 13.7538923,13.4651844 C13.934295,13.3067584 14.0244963,13.091913 14.0244963,12.8743593 C14.0244963,12.6807276 13.9526171,12.4879986 13.8055702,12.3336348 C13.6824829,12.2049983 13.5157044,12.1404544 13.3470467,12.1404544 C13.1957716,12.1404544 13.0463756,12.191909 12.9270468,12.2970749 C12.8293287,12.3828326 12.7814092,12.4979284 12.7809394,12.615281 C12.7814092,12.7204469 12.8194629,12.8224534 12.8993287,12.9064056 C12.9613421,12.9714009 13.0440266,13.0034472 13.1299998,13.0034472 C13.206577,13.0034472 13.2812749,12.9777199 13.3423487,12.9244599 C13.4381877,12.8405076 13.5871138,12.847278 13.6744963,12.9393546 C13.7618789,13.0314312 13.7543621,13.1740598 13.658993,13.2584633 C13.5091272,13.3893566 13.318389,13.4552546 13.1299998,13.4548032 C12.9199998,13.4552546 12.7071811,13.3726564 12.5535569,13.2115223 C12.3914764,13.0427151 12.3111409,12.8278697 12.3111409,12.615281 C12.3111409,12.376965 12.4121476,12.1377463 12.6099328,11.9644255 C12.8185233,11.7802723 13.0844293,11.688647 13.3470467,11.688647 C13.6411406,11.688647 13.936644,11.8032914 14.1513419,12.0280667 C14.3801338,12.2681882 14.4947647,12.5724021 14.4942949,12.8743593 C14.4947647,13.2128764 14.3514761,13.5513934 14.0710064,13.7982852 C13.7693957,14.0627798 13.3874494,14.1945758 13.008322,14.1945758 C12.5845636,14.1945758 12.1589261,14.0298308 11.8493288,13.7057572 C11.5148323,13.3546022 11.3480538,12.9100165 11.3485236,12.469493 C11.3480538,11.9748067 11.5571141,11.4801205 11.9667785,11.1203897 C12.4121476,10.7272586 12.9768454,10.5336269 13.5368454,10.5336269 C14.1649661,10.5336269 14.7935566,10.7773591 15.2516102,11.2566992 C15.7524155,11.7802723 16.0004691,12.4433143 16,13.1022941 C16.0004691,13.841164 15.6889927,14.5791311 15.0768451,15.1171476 C14.4050331,15.7075213 13.5561071,16 12.7123488,16 C11.7671141,16 10.8223491,15.6334989 10.1331546,14.9113292" id="Fill-14" fill="#FFFFFF"></path>
                <path d="M8.69665928,21.8469826 C7.58493947,21.5060721 6.88038118,20.546117 6.88038118,19.5142306 C6.88038118,19.2587656 6.92306747,18.9985053 7.014069,18.7439123 C7.31474934,17.8986112 8.15956258,17.3628324 9.06676347,17.3628324 C9.29192191,17.3628324 9.52083299,17.3955284 9.74552235,17.4652799 C10.4927669,17.694588 10.9660687,18.3393536 10.9655997,19.0325092 C10.9655997,19.2047082 10.9369858,19.3786511 10.8760054,19.5508501 C10.6714864,20.1241203 10.0987397,20.4872641 9.48143026,20.4872641 C9.32851016,20.4872641 9.17371373,20.4654668 9.0212627,20.4188205 C8.50762,20.2610077 8.18207842,19.8176496 8.18207842,19.3402877 C8.18207842,19.223018 8.20224887,19.1022607 8.24399699,18.984555 C8.38659734,18.5847917 8.78625357,18.3310706 9.21640001,18.3310706 C9.32288119,18.3310706 9.43170777,18.3463287 9.53771987,18.3794607 C9.90172602,18.4910631 10.1329825,18.8058168 10.1329825,19.1441116 C10.1329825,19.2273775 10.118441,19.3123871 10.0893581,19.395653 C10.0490172,19.5098711 9.91626751,19.5726474 9.79336852,19.535156 C9.67046954,19.4972286 9.60292201,19.3742916 9.64326289,19.2600735 C9.6573353,19.2208383 9.66343334,19.181603 9.66343334,19.1441116 C9.66343334,18.9893504 9.55742124,18.8441801 9.38995965,18.7931743 C9.3322628,18.7753005 9.27456595,18.7670175 9.21640001,18.7670175 C8.98420537,18.7670175 8.76608313,18.9043408 8.68962308,19.1223143 C8.66335459,19.1946814 8.65162759,19.2674846 8.65162759,19.3402877 C8.65162759,19.63368 8.85145571,19.9078906 9.16808477,20.0046709 C9.27222054,20.0369309 9.37823264,20.0513172 9.48143026,20.0513172 C9.90125694,20.0513172 10.2924697,19.8045712 10.4303793,19.4143987 C10.4749419,19.2866663 10.4965196,19.1584979 10.4965196,19.0325092 C10.4965196,18.5228872 10.1484621,18.0472691 9.59823121,17.8789936 C9.42091893,17.8249362 9.2426685,17.7992153 9.06676347,17.7992153 C8.35704529,17.7992153 7.69470421,18.2181603 7.46016417,18.8807997 C7.38464227,19.0909261 7.34946127,19.3036682 7.34946127,19.5142306 C7.34946127,20.3621474 7.92924425,21.153391 8.84348134,21.433269 C9.13243468,21.5217662 9.42607881,21.5640531 9.71456307,21.5640531 C10.8806962,21.5640531 11.9666166,20.8761288 12.3517313,19.7914928 C12.472754,19.4492745 12.5309199,19.1031326 12.5309199,18.7622221 C12.5304508,17.3850657 11.5899453,16.1020739 10.1057759,15.6465093 C9.63951025,15.5039547 9.16761569,15.4359469 8.7032264,15.4359469 C6.82643697,15.4359469 5.0777064,16.5432522 4.45711345,18.2905275 L4.45758253,18.2905275 C4.41677256,18.4056175 4.28449197,18.467522 4.16112391,18.4295946 C4.03822493,18.3921031 3.97114648,18.2687301 4.01195644,18.1545121 C4.69822061,16.2237031 6.62848517,15 8.7032264,15 C9.21640001,15 9.73848615,15.0745469 10.2525979,15.2332316 C11.93425,15.7489568 13,17.201532 13,18.7622221 C13,19.1484711 12.9347979,19.5412593 12.7973574,19.9279442 C12.3465714,21.1956779 11.0781789,22 9.71456307,22 C9.37729448,22 9.03392786,21.950738 8.69665928,21.8469826" id="Fill-15" fill="#FFFFFF"></path>
                <path d="M21.2034339,19.9279442 C21.0648357,19.5408233 21,19.1475992 21,18.7609142 C21,17.2010961 22.0660312,15.7489568 23.7475323,15.2332316 C24.2610502,15.0749829 24.7830249,15 25.2965428,15 C27.3712867,15 29.3022644,16.224139 29.9882078,18.1545121 C30.0286127,18.2687301 29.9618977,18.3921031 29.8383339,18.4300305 C29.71524,18.467522 29.5818099,18.4051815 29.541405,18.2905275 C28.9217068,16.5428162 27.1730209,15.4359469 25.2965428,15.435511 C24.8323565,15.4359469 24.3601831,15.5035187 23.8955269,15.6469453 C22.4113521,16.1016379 21.4698243,17.3846298 21.4698243,18.7609142 C21.4698243,19.1022607 21.5271428,19.4484026 21.6497669,19.7914928 C22.034553,20.8765647 23.1207867,21.5636171 24.2859508,21.5640531 C24.5739531,21.5636171 24.8666536,21.5217662 25.1560654,21.433269 C26.0708132,21.153391 26.6501065,20.3625833 26.6501065,19.5146665 C26.6501065,19.3041041 26.6143999,19.0909261 26.5396978,18.8803637 C26.3052555,18.2181603 25.6428033,17.7992153 24.9333687,17.7992153 C24.7571846,17.7992153 24.5791212,17.8245002 24.4024673,17.8789936 C23.8527729,18.0472691 23.5046331,18.5228872 23.5041633,19.0329451 C23.5046331,19.1593697 23.5253054,19.2871022 23.5704085,19.4139628 C23.7090067,19.8050072 24.0999004,20.0517531 24.5189837,20.0517531 C24.622345,20.0517531 24.7275856,20.0369309 24.8318866,20.0046709 C25.1476085,19.9083266 25.3486933,19.634116 25.3486933,19.3407237 C25.3486933,19.2683565 25.3360081,19.1938096 25.3106376,19.1214424 C25.2335864,18.9043408 25.0160577,18.7670175 24.7834947,18.7670175 C24.7257064,18.7670175 24.6674481,18.7753005 24.6096598,18.7931743 C24.443342,18.8441801 24.3371617,18.9889145 24.3366919,19.1436757 C24.3371617,19.1829109 24.3432694,19.2204023 24.3568943,19.2578938 C24.3982388,19.3721119 24.3324634,19.4954848 24.2098393,19.5342841 C24.0867454,19.5730834 23.9537851,19.5116149 23.9119707,19.3978327 C23.8809623,19.3128231 23.8668676,19.2260696 23.8668676,19.1436757 C23.8668676,18.8053808 24.0980211,18.4910631 24.4611953,18.3798966 C24.5683152,18.3463287 24.6773145,18.3310706 24.7834947,18.3310706 C25.2138538,18.3306346 25.614144,18.5852276 25.7569706,18.9858629 C25.7978453,19.1022607 25.8185176,19.2225821 25.8185176,19.3407237 C25.8185176,19.8176496 25.4929294,20.2605717 24.9789416,20.4188205 C24.8267186,20.4654668 24.6716766,20.4872641 24.5189837,20.4872641 C23.9016346,20.4877001 23.328449,20.1236844 23.1245453,19.5508501 C23.0629983,19.379087 23.034339,19.2042723 23.034339,19.0329451 C23.034339,18.3393536 23.5079219,17.694588 24.2544726,17.4657159 C24.4790486,17.3964003 24.707853,17.3628324 24.9333687,17.3628324 C25.841539,17.3628324 26.6853433,17.8990471 26.9860308,18.7439123 C27.0762371,18.9985053 27.1199308,19.2587656 27.1194609,19.5146665 C27.1199308,20.546117 26.4156642,21.5060721 25.3035902,21.8474186 C24.9657865,21.950302 24.6232847,22 24.2859508,22 C22.9225209,22 21.6539954,21.1956779 21.2034339,19.9279442" id="Fill-16" fill="#FFFFFF"></path>
                <path d="M19.8613173,49 C19.6240415,49 19.3831222,48.9574813 19.148579,48.8680953 C18.4408503,48.5984879 18,47.8916141 18,47.1369067 C18,46.9305942 18.0318797,46.7199332 18.1024704,46.5155534 C18.3124208,45.8946834 18.8625728,45.5076663 19.450525,45.5081495 C19.6108342,45.5076663 19.7747868,45.5366564 19.9346405,45.5980186 C20.4210332,45.7835549 20.7238901,46.2691381 20.7238901,46.7880598 C20.7238901,46.9296279 20.7011189,47.0731286 20.6537548,47.2146966 C20.5071083,47.6476146 20.123186,47.917222 19.7133045,47.917222 C19.6008149,47.917222 19.4869589,47.8959626 19.3762909,47.8544102 C19.031535,47.7229887 18.8161195,47.3789735 18.8161195,47.0112832 C18.8161195,46.9107843 18.831604,46.8069034 18.8662162,46.7083372 C18.9723299,46.3962111 19.2487722,46.2014947 19.5452531,46.2014947 C19.6249523,46.2014947 19.7082949,46.2155065 19.7889049,46.2464292 C20.0434868,46.344029 20.2015189,46.5972087 20.2010635,46.8682656 C20.2010635,46.9426734 20.1892225,47.0170812 20.1646296,47.0914889 C20.1250077,47.2079323 20.054417,47.3016667 19.9660648,47.3678607 C20.0821979,47.3031162 20.1773815,47.1939204 20.2247455,47.0533187 C20.2543481,46.9639328 20.2684662,46.8740636 20.2684662,46.7880598 C20.2684662,46.4677199 20.081287,46.1662234 19.7807073,46.052196 C19.6709501,46.0106436 19.5602821,45.9913169 19.450525,45.9908337 C19.0502074,45.9913169 18.6735719,46.2546431 18.5305688,46.6793472 C18.4791059,46.8300954 18.4549684,46.9842258 18.4549684,47.1369067 C18.4549684,47.6925491 18.7801411,48.214853 19.3016014,48.4134348 C19.4869589,48.4830109 19.6755044,48.5168326 19.8613173,48.5168326 C20.5394434,48.5163495 21.1770368,48.0708692 21.4197777,47.3538488 C21.5044866,47.1011523 21.5445639,46.8445904 21.5445639,46.5918939 C21.5445639,45.6666284 21.0048866,44.7983767 20.1363933,44.4698229 C20.0184385,44.4248883 19.9565009,44.2862193 19.9988553,44.1605957 C20.0407543,44.0344891 20.1719164,43.9692615 20.2898711,44.014196 C21.3441774,44.4152249 22.0004431,45.4685298 22,46.5918939 C22.0004431,46.8987052 21.9512574,47.2113144 21.8483316,47.5166762 C21.5386434,48.4303457 20.7275335,49 19.8626836,49 C19.8622281,49 19.8617727,49 19.8613173,49 Z M19.2943146,46.8740636 C19.2788302,46.9180319 19.2715434,46.9639328 19.2715434,47.0112832 C19.2715434,47.0798929 19.2879387,47.1475364 19.3189075,47.2074491 C19.3193629,47.1823244 19.3230063,47.1567165 19.3316594,47.132075 C19.3731029,47.0059683 19.5033541,46.9402576 19.6222198,46.984709 C19.6322391,46.9880911 19.6422584,46.9900238 19.6527332,46.9900238 C19.6887117,46.9900238 19.7237793,46.9658654 19.7351649,46.9310774 C19.7424517,46.9078853 19.7456396,46.8875923 19.7456396,46.8682656 C19.7451842,46.7953073 19.7032852,46.7266976 19.6340608,46.7010897 C19.6035474,46.6894937 19.5748557,46.684662 19.5452531,46.684662 C19.4364068,46.684662 19.3339365,46.7556876 19.2943146,46.8740636 L19.2943146,46.8740636 Z" id="Fill-17" fill="#FFFFFF"></path>
                <path d="M22.7158171,46 C22.1243133,46.0004245 21.5302654,45.7809541 21.0663907,45.3398784 L21.0668147,45.3403054 C20.9811633,45.2587512 20.9773471,45.1242508 21.0583344,45.0384268 C21.1380496,44.9526028 21.272463,44.9487599 21.3581145,45.0294601 C21.7405778,45.3936785 22.2277734,45.5725853 22.7158171,45.5730123 C23.2420223,45.5725853 23.7652593,45.3637895 24.155355,44.9487599 C24.4369023,44.6477353 24.5759799,44.2655836 24.576404,43.8830048 C24.5759799,43.4701101 24.4144294,43.0597773 24.0934485,42.7549099 C23.8623592,42.5354395 23.5702115,42.4278392 23.2759436,42.4269852 C22.9587789,42.4278392 22.6445822,42.5525189 22.4101008,42.8035862 C22.2438861,42.981212 22.1620508,43.2058063 22.1620508,43.4321084 C22.1620508,43.67549 22.2574546,43.9175906 22.4474143,44.0990593 C22.5801316,44.22502 22.7476184,44.2865058 22.9172252,44.2869328 C23.0999765,44.2865058 23.2806078,44.2143453 23.4162933,44.0708783 C23.5070329,43.9739527 23.5519787,43.8526889 23.5536748,43.7288631 C23.5392582,43.8283507 23.4951604,43.9252763 23.4205334,44.0051226 C23.3068969,44.1246784 23.1534027,44.1874453 22.9999085,44.1870183 C22.8582868,44.1874453 22.714121,44.1340721 22.6026045,44.0281798 C22.4622549,43.8953874 22.39102,43.7147726 22.391444,43.5362928 C22.39102,43.3701956 22.4533505,43.2019634 22.5746194,43.0725869 C22.7285376,42.9073436 22.9388501,42.8232275 23.1470424,42.8236545 C23.3403942,42.8232275 23.5358661,42.895815 23.6872402,43.040136 C23.8797439,43.2237396 23.9781159,43.472245 23.9781159,43.7211774 C23.9785399,43.9504685 23.8945845,44.1831754 23.7245537,44.3646441 C23.5061849,44.5956431 23.211493,44.714345 22.9172252,44.713918 C22.6450062,44.714345 22.3702432,44.6127225 22.1561146,44.4090506 C21.8783834,44.1451737 21.7376097,43.7873601 21.7380337,43.4321084 C21.7376097,43.1016219 21.8584546,42.7690004 22.1014164,42.5106743 C22.4185811,42.1716481 22.8476864,42 23.2759436,42 C23.6732476,42 24.0730957,42.1481639 24.3843242,42.4440646 C24.7930767,42.8326212 25.000421,43.35824 25,43.8830048 C25.000421,44.369768 24.8223338,44.85952 24.4636154,45.2420988 C23.9916844,45.7442334 23.3543868,46 22.7175132,46 C22.7170891,46 22.7166651,46 22.7158171,46 Z M22.8833038,43.3654987 C22.837086,43.414602 22.8158851,43.4748069 22.8154611,43.5362928 C22.8158851,43.6029025 22.8409021,43.6678043 22.8934802,43.7177615 C22.9235854,43.7459426 22.9604749,43.7596061 22.9999085,43.7600331 C23.0406142,43.7596061 23.0817438,43.7438076 23.1131211,43.7113568 C23.1283857,43.6947043 23.135594,43.675063 23.135594,43.6545677 C23.135594,43.6323645 23.1271136,43.6105882 23.1097289,43.5939358 C23.0249255,43.5123816 23.0215334,43.3774543 23.1020966,43.2920573 C23.1182093,43.2749779 23.136866,43.2613143 23.1567948,43.2506397 C23.1534027,43.2502127 23.1500106,43.2502127 23.1470424,43.2502127 C23.0495185,43.2506397 22.9549627,43.2882144 22.8833038,43.3654987 L22.8833038,43.3654987 Z" id="Fill-18" fill="#FFFFFF"></path>
                <path d="M25.6918275,49.0000011 C25.3620094,49.0005417 25.0309576,48.8216179 24.7899684,48.4720029 C24.6098433,48.211301 24.5197808,47.8787002 24.5197808,47.5499414 C24.5193695,47.1816656 24.6308168,46.812841 24.8500101,46.5444552 C25.0145079,46.3430287 25.2238313,46.242041 25.4310985,46.2425898 C25.6618066,46.242041 25.8941598,46.3677267 26.0635925,46.613061 C26.1914895,46.798571 26.2552324,47.0362214 26.2552324,47.2700298 C26.2552324,47.5312806 26.175451,47.793629 26.0200006,47.986274 C25.9007397,48.1317183 25.7477567,48.2052637 25.5980638,48.2052637 C25.430276,48.2052637 25.2612545,48.1136063 25.1395262,47.9374267 C25.0445287,47.7996664 24.9960019,47.622389 24.9964131,47.4484048 C24.9960019,47.2557598 25.0552211,47.058724 25.1707808,46.9187683 C25.1917542,46.8929725 25.2139614,46.869921 25.2374024,46.8501625 C25.1987454,46.8754094 25.1621446,46.9083402 25.1284226,46.9495037 C24.9968244,47.1103156 24.9310252,47.3276587 24.930614,47.5499414 C24.9310252,47.7469771 24.9840758,47.9423664 25.0922331,48.100434 C25.2530297,48.3331448 25.4714005,48.4511467 25.6918275,48.4516956 C25.8904586,48.4511467 26.0862109,48.3567452 26.2433063,48.1651979 C26.4727807,47.8819933 26.5883404,47.4994475 26.5891629,47.1136087 C26.5883404,46.7678356 26.4958104,46.4226114 26.3070492,46.1476394 C26.0323379,45.7486283 25.6593392,45.5488483 25.2842842,45.5482994 C24.9482975,45.5482994 24.6118995,45.7102091 24.3450019,46.0384191 L24.3454131,46.0389679 C24.2615193,46.1410533 24.1311548,46.1344671 24.0546633,46.0225025 C23.9773493,45.9105379 23.9826955,45.7371025 24.0665894,45.6344683 C24.4116235,45.2102102 24.8495988,44.9994533 25.2842842,45.0000011 C25.7691414,44.9994533 26.2544099,45.2612529 26.6097251,45.7760706 C26.8712766,46.1553233 27.0004074,46.6361125 27,47.1136087 C27.0004074,47.6454406 26.838377,48.1783702 26.5217188,48.5685998 C26.2873095,48.856744 25.9891572,49.0000011 25.6938837,49.0000011 C25.6930612,49.0000011 25.69265,49.0000011 25.6918275,49.0000011 Z M25.448782,47.3243656 C25.4216399,47.3567475 25.4080688,47.4006552 25.4076576,47.4484048 C25.4080688,47.490666 25.4183499,47.5307317 25.4422021,47.565309 C25.452072,47.579579 25.4635868,47.5927514 25.4751017,47.6037283 C25.4602969,47.5126198 25.4804478,47.4138275 25.5343209,47.3452217 C25.5384333,47.340831 25.5388446,47.336989 25.5388446,47.3342448 C25.5384333,47.3304029 25.5384333,47.3287564 25.5371996,47.3271098 C25.5232173,47.3079002 25.5084125,47.3002164 25.4915514,47.3002164 C25.4767466,47.3002164 25.4627643,47.3068025 25.448782,47.3243656 L25.448782,47.3243656 Z" id="Fill-19" fill="#FFFFFF"></path>
                <path d="M12.1525501,47.5170336 C12.0482696,47.2116462 12,46.8990107 12,46.5921736 C12,45.4672655 12.6566485,44.4153218 13.7099271,44.0142593 C13.8278689,43.9693209 13.958561,44.0340708 14.0009107,44.1597048 C14.0437158,44.2853389 13.9817851,44.4235364 13.8638434,44.4684747 C12.9959016,44.7989889 12.4558288,45.6663472 12.4553734,46.5921736 C12.4558288,46.8444082 12.4954463,47.1005084 12.5806011,47.3537093 C12.8228597,48.0707899 13.4608379,48.5163076 14.1397996,48.5167908 C14.3246812,48.5167908 14.5132058,48.4834495 14.6980874,48.4133843 C15.2199454,48.2152691 15.545082,47.6924381 15.545082,47.1362658 C15.545082,46.983572 15.5204918,46.8289455 15.46949,46.6777014 C15.3265027,46.2544113 14.9499089,45.9905797 14.5496357,45.9905797 C14.4394353,45.9905797 14.329235,46.009908 14.21949,46.0529136 C13.9189435,46.1669506 13.7317851,46.4679892 13.7313297,46.7878728 C13.7317851,46.8753335 13.7454463,46.9632773 13.7750455,47.0517044 C13.8228597,47.1928011 13.9166667,47.3010397 14.0323315,47.3662727 C13.9448998,47.3005565 13.8747723,47.2068141 13.8356102,47.0918106 C13.8105647,47.0173966 13.798725,46.941533 13.798725,46.8676021 C13.798725,46.5965225 13.9576503,46.3428383 14.208561,46.2471631 C14.2905282,46.214305 14.3743169,46.200292 14.4544627,46.2007752 C14.7513661,46.200292 15.0277778,46.395508 15.1334244,46.7076603 C15.167122,46.8067179 15.1835155,46.9096412 15.1835155,47.0106317 C15.1839709,47.3783529 14.9685792,47.722397 14.6224954,47.854796 C14.5127505,47.8958686 14.3993625,47.9166466 14.2864299,47.9161634 C13.8765938,47.9166466 13.4931694,47.6470165 13.3469945,47.2150286 C13.298725,47.0739319 13.2759563,46.9294528 13.2759563,46.7878728 C13.2759563,46.2689075 13.5787796,45.7832835 14.064663,45.5982149 C14.2244991,45.5358811 14.3893443,45.5073718 14.5496357,45.5073718 C15.1370674,45.5073718 15.6876138,45.8944213 15.8979964,46.5153435 C15.9672131,46.7187741 16,46.9294528 16,47.1362658 C16,47.8910366 15.5596539,48.598453 14.8510929,48.8685662 C14.6165756,48.9569933 14.3761384,49 14.1397996,49 C13.2741348,49.000482 12.462204,48.4307798 12.1525501,47.5170336 Z M14.6693989,47.1333665 C14.6771403,47.1575269 14.6807832,47.1821705 14.6812386,47.2063309 C14.7117486,47.1468963 14.7281421,47.0792472 14.7281421,47.0106317 C14.7281421,46.9637605 14.7208561,46.9168893 14.7053734,46.8714678 C14.6662113,46.7559811 14.5637523,46.6839831 14.4544627,46.6834999 C14.424408,46.6839831 14.3957195,46.6892984 14.3652095,46.7008954 C14.2969035,46.7269886 14.2545537,46.7956042 14.2540984,46.8676021 C14.2540984,46.8878969 14.2577413,46.9072252 14.2645719,46.9280031 C14.2764117,46.9656933 14.3105647,46.9893705 14.3469945,46.9898537 C14.3565574,46.9893705 14.367031,46.9879209 14.3797814,46.983572 C14.4043716,46.9748743 14.4298725,46.9700422 14.4540073,46.9700422 C14.548725,46.9700422 14.6370674,47.0333425 14.6693989,47.1333665 L14.6693989,47.1333665 Z" id="Fill-20" fill="#FFFFFF"></path>
                <path d="M9.53553514,45.2420199 C9.1780887,44.8594 8.99957749,44.3700224 9.00000075,43.883207 C8.99957749,43.3579588 9.20692186,42.8322835 9.61567438,42.4441123 C9.92732697,42.1477527 10.3267511,42 10.7240552,42 C11.1523125,42 11.5809938,42.1712395 11.8981586,42.5094481 C12.1411204,42.7686559 12.2623893,43.1017402 12.2623893,43.4314081 C12.2623893,43.787552 12.1211916,44.14455 11.8438844,44.4093093 C11.6297557,44.6125761 11.3549926,44.7137824 11.0823496,44.7137824 C10.7885058,44.7137824 10.4933898,44.5950678 10.275445,44.363617 C10.1062622,44.1829828 10.0210348,43.9502509 10.0214588,43.7205082 C10.0210348,43.4724031 10.1194067,43.2221629 10.3131826,43.0393936 C10.4641327,42.8950571 10.6596045,42.8228889 10.8525323,42.8233159 C11.0611488,42.8228889 11.2706132,42.907014 11.4249555,43.071848 C11.5470724,43.2016654 11.6085549,43.3699157 11.6081309,43.5356037 C11.6085549,43.7145297 11.53732,43.8943098 11.3973944,44.0279705 C11.2858778,44.1338742 11.141288,44.1868261 11.0000903,44.1863991 C10.8461721,44.1868261 10.6922539,44.1249066 10.5786173,44.0036298 C10.5044143,43.9254831 10.4603165,43.827693 10.4454759,43.7277677 C10.447172,43.8520337 10.4925418,43.9733106 10.5841295,44.0702466 C10.7189669,44.2141561 10.9000223,44.2858973 11.0823496,44.2863243 C11.2523805,44.2858973 11.4198673,44.2244048 11.5525846,44.0992847 C11.7425443,43.9173695 11.8379481,43.6752429 11.8383722,43.4314081 C11.8379481,43.2050817 11.7561128,42.9808904 11.5898981,42.8032454 C11.3549926,42.5525782 11.04122,42.4274581 10.7240552,42.4270311 C10.4302113,42.4274581 10.1376395,42.535497 9.90697414,42.7545639 C9.58556916,43.0598911 9.42401863,43.4698409 9.42359462,43.883207 C9.42401863,44.2662539 9.56309625,44.6480196 9.84421961,44.9482225 C10.2334673,45.3637237 10.7575525,45.5725419 11.2837578,45.5729689 C11.7722255,45.5725419 12.2598452,45.3931889 12.6423086,45.0293584 L12.6423086,45.0297854 C12.7275361,44.9482225 12.8615255,44.9524928 12.9420888,45.037899 C13.022652,45.1233052 13.0184118,45.2586741 12.9340324,45.3393829 C12.4701577,45.780506 11.8752617,46 11.2837578,46 C10.64646,46 10.0078902,45.7446354 9.53553514,45.2420199 Z M10.8995982,43.2930501 C10.9793135,43.3793103 10.9746493,43.5146792 10.8885738,43.594534 C10.8724611,43.6103342 10.8648288,43.6304046 10.8644048,43.6538913 C10.8648288,43.6748158 10.8711891,43.6944593 10.8864537,43.7102594 C10.9169829,43.7427138 10.9581126,43.759795 11.0000903,43.759795 C11.0390999,43.758941 11.0768374,43.74613 11.1056706,43.7175189 C11.1586727,43.6667023 11.1841137,43.6022206 11.1845378,43.5356037 C11.1841137,43.4741112 11.1624889,43.4134728 11.116695,43.3652183 C11.0441881,43.2883527 10.9496323,43.250347 10.8525323,43.2499199 C10.8495642,43.2499199 10.8465961,43.2499199 10.843204,43.250347 C10.8639808,43.2610227 10.8830616,43.2751148 10.8995982,43.2930501 L10.8995982,43.2930501 Z" id="Fill-21" fill="#FFFFFF"></path>
                <path d="M7.47788681,48.5681756 C7.16039335,48.1780521 6.99959031,47.6452675 7.00000078,47.1130316 C7.00000078,46.636214 7.12954878,46.1550069 7.39028823,45.776406 C7.74438392,45.2617284 8.23049438,45 8.71578232,45 C9.15048517,45 9.5884781,45.2106996 9.93352605,45.6348422 L9.93393731,45.6353909 C10.0174233,45.7374486 10.0223584,45.9113855 9.94545262,46.0227709 C9.86813555,46.1341564 9.73817709,46.1418381 9.65551363,46.0386831 C9.38778274,45.7100137 9.0521938,45.5497942 8.71578232,45.5486968 C8.3398898,45.5497942 7.96728736,45.7500686 7.6929763,46.1473251 C7.50379626,46.4227709 7.41126254,46.7673525 7.41085128,47.1130316 C7.41126254,47.4987654 7.52682687,47.8817558 7.75672175,48.1643347 C7.91341218,48.3563786 8.10999492,48.4502058 8.30781145,48.4507545 C8.52824732,48.4502058 8.7466269,48.3327846 8.9078412,48.1001372 C9.01600283,47.9432099 9.06823297,47.7467764 9.06864423,47.5492455 C9.06823297,47.3286694 9.00243122,47.1102881 8.87165023,46.9489712 C8.83792683,46.9078189 8.80091334,46.8748971 8.76184355,46.8502058 C8.78528543,46.8694102 8.80749352,46.8924554 8.82805657,46.9176955 C8.94403216,47.0587106 9.00325374,47.2540466 9.00284248,47.4477366 C9.00325374,47.6216735 8.95636999,47.7978052 8.86013492,47.9366255 C8.73757916,48.1127572 8.56937342,48.205487 8.40199021,48.2049383 C8.25105743,48.2049383 8.09930214,48.1319616 7.98003645,47.9849108 C7.82457981,47.7939643 7.74397266,47.5311385 7.74438392,47.2699588 C7.74397266,47.036214 7.80854063,46.799177 7.93644279,46.6131687 C8.10547105,46.3679012 8.33824476,46.2422497 8.56896216,46.2422497 C8.77582643,46.2422497 8.98556952,46.3432099 9.14966264,46.5451303 C9.36845348,46.8128944 9.48031646,47.1821674 9.47949394,47.5492455 C9.48031646,47.8784636 9.39066157,48.2109739 9.21011801,48.4721536 C8.96870782,48.8205761 8.638054,49 8.30781145,49 C8.01211481,49 7.71353935,48.8567901 7.47788681,48.5681756 Z M8.46285683,47.327572 C8.46162305,47.3308642 8.46121179,47.3319616 8.46121179,47.3336077 C8.46162305,47.3374486 8.46121179,47.3390947 8.46450187,47.3434842 C8.51961084,47.4120713 8.54017389,47.5119342 8.5253685,47.6035665 C8.5368838,47.5920439 8.54798785,47.5794239 8.55826937,47.5646091 C8.58088873,47.5311385 8.59158151,47.4910837 8.59199277,47.4477366 C8.59158151,47.4005487 8.5780099,47.3561043 8.55004415,47.3226337 C8.53811759,47.3072702 8.52372345,47.3001372 8.5085068,47.3001372 C8.49082258,47.3012346 8.47601718,47.3089163 8.46285683,47.327572 L8.46285683,47.327572 Z" id="Fill-22" fill="#FFFFFF"></path>
                <path d="M15.2837841,4 C14.6464786,4.00042486 14.007901,3.74466069 13.5355402,3.24124507 C13.1780894,2.85952026 13,2.36976817 13,1.88300498 C13,1.3582401 13.2069229,0.832621248 13.6156804,0.444064666 C13.9273368,0.147736898 14.3267658,0 14.7232266,0 C15.1514891,0 15.5810237,0.171648073 15.8981924,0.509820395 C16.1411571,0.76857346 16.2624275,1.10162196 16.2620035,1.43125458 C16.2624275,1.78778726 16.1212281,2.14474694 15.8443415,2.40862383 C15.6302103,2.61272278 15.3550198,2.71391828 15.0823735,2.7134913 C14.788102,2.71391828 14.4929825,2.59607035 14.2754591,2.36379037 C14.1058501,2.18317561 14.0214697,1.95089563 14.0214697,1.72075058 C14.0214697,1.47224516 14.1194189,1.22288577 14.312773,1.04013608 C14.464149,0.895388081 14.6596233,0.822373602 14.8529774,0.823227573 C15.0607483,0.822373602 15.2702154,0.906916683 15.4249835,1.07130601 C15.5471019,1.20196349 15.6081611,1.37019568 15.6077371,1.53586596 C15.6081611,1.71477279 15.5369254,1.89453358 15.3978461,2.02775298 C15.2859042,2.13364532 15.1421606,2.18701848 15.0001132,2.18701848 C14.8461931,2.18701848 14.6918489,2.12467863 14.578211,2.0038418 C14.5048551,1.92527652 14.4603328,1.82835086 14.445492,1.72843631 C14.4480361,1.85183505 14.4925585,1.97352585 14.5841473,2.0704515 C14.7185624,2.21391855 14.8996199,2.28650604 15.0823735,2.28693303 C15.2519824,2.28650604 15.4198952,2.22459318 15.5521902,2.09863253 C15.7425762,1.91759078 15.8375572,1.67549014 15.8379812,1.43125458 C15.8375572,1.20537938 15.7565689,0.980358147 15.5899282,0.80273228 C15.3545958,0.552945906 15.0408193,0.427412241 14.7232266,0.427412241 C14.4298032,0.427412241 14.1372278,0.535012525 13.9069837,0.754055961 C13.5855748,1.0597774 13.4244463,1.47011023 13.4240223,1.88300498 C13.4244463,2.26601075 13.5631016,2.64773557 13.8446524,2.94833319 C14.2339049,3.36378984 14.7575724,3.57301262 15.2837841,3.57301262 C15.7722578,3.57301262 16.2594594,3.39325183 16.6427755,3.0290334 L16.6427755,3.02946039 C16.72758,2.94833319 16.861571,2.95217606 16.9421353,3.03800009 C17.0226995,3.12339714 17.0184593,3.25832448 16.9336548,3.33945168 C16.4701984,3.78052745 15.8765672,4 15.2854802,4 C15.2850561,4 15.2846321,4 15.2846321,4 L15.2837841,4 Z M14.8991958,1.29291135 C14.978912,1.37873539 14.9746718,1.51366273 14.8898674,1.59478993 C14.8724824,1.61058838 14.864002,1.63108368 14.864002,1.65414088 C14.864002,1.67506316 14.8712104,1.69427749 14.8860512,1.71050293 C14.9174288,1.74380778 14.9581349,1.76003322 15.0001132,1.76003322 C15.0391232,1.75960624 15.0764372,1.74551572 15.1065428,1.71818867 C15.1586975,1.66780441 15.1837148,1.60247566 15.1841388,1.53586596 C15.1837148,1.47352612 15.1616656,1.4133212 15.1167193,1.36464488 C15.0442115,1.28778753 14.9496545,1.25063981 14.8529774,1.25021283 C14.8500093,1.25021283 14.8470411,1.25021283 14.844073,1.25021283 C14.864002,1.26131444 14.882659,1.27540496 14.8991958,1.29291135 L14.8991958,1.29291135 Z" id="Fill-23" fill="#FFFFFF"></path>
                <path d="M12.3081524,7.00000107 C12.0120605,7.00054053 11.7135011,6.85674288 11.4782726,6.56859874 C11.1616188,6.17891809 10.9995907,5.64598863 11.000001,5.11360803 C10.9995907,4.63611202 11.1299534,4.15532293 11.3906787,3.77607036 C11.7451665,3.26180167 12.2308395,2.99945329 12.71569,3.00000107 C13.1507805,2.99945329 13.5887498,3.21021015 13.9337791,3.63391925 C14.0172606,3.73765114 14.0226067,3.91053763 13.9452938,4.02195336 C13.8688034,4.13391794 13.7384407,4.14050409 13.6549592,4.03841874 C13.3880653,3.71020884 13.0529057,3.54939697 12.71569,3.54939697 C12.340229,3.54939697 11.9676467,3.74972575 11.6937617,4.14763909 C11.5041806,4.42315978 11.4116519,4.76728621 11.4112407,5.11360803 C11.4116519,5.50000107 11.5276212,5.88199241 11.7566812,6.16519694 C11.9137744,6.35674418 12.1103465,6.45114569 12.3081524,6.45169454 C12.5289876,6.45114569 12.7465329,6.33369265 12.9077385,6.10043311 C13.0163055,5.94291431 13.068944,5.74752514 13.0693553,5.54939174 C13.068944,5.32820681 13.0027346,5.11031495 12.8715494,4.94895423 C12.8378279,4.90779078 12.8008164,4.87431118 12.7617487,4.84961311 C12.7856005,4.86937156 12.8082187,4.89242309 12.8296031,4.91821886 C12.9443387,5.05982112 13.0035571,5.25521029 13.0031458,5.44840408 C13.0035571,5.62183941 12.9562646,5.79856782 12.860446,5.93742585 C12.7383081,6.11360541 12.5697002,6.20581154 12.4019148,6.20526269 C12.2518127,6.20581154 12.0992431,6.13226618 11.9799839,5.9857243 C11.8245356,5.7947259 11.7447553,5.53127982 11.7447553,5.27057798 C11.7447553,5.03622074 11.8089085,4.79857043 11.9368038,4.61360933 C12.1054117,4.36772633 12.3381728,4.2420406 12.569289,4.24258945 C12.7761421,4.24258945 12.9858738,4.34302826 13.1499581,4.54555243 C13.3687371,4.81338927 13.480594,5.18221377 13.4801828,5.54939174 C13.480594,5.87815048 13.3905327,6.21075115 13.2104102,6.47200184 C12.9698355,6.82106789 12.6396108,7.00000107 12.3097973,7.00000107 C12.3093861,7.00000107 12.3085636,7.00000107 12.3081524,7.00000107 Z M12.4636006,5.32710911 C12.4611332,5.33040219 12.4611332,5.33204873 12.4611332,5.33479296 C12.4615444,5.33863488 12.4615444,5.33973257 12.4644231,5.34357449 C12.5199403,5.4116314 12.5405023,5.51152137 12.5256977,5.60372749 C12.5372123,5.59275057 12.5483158,5.57957827 12.5581855,5.56530827 C12.5812149,5.53127982 12.5914959,5.49121406 12.5919071,5.44840408 C12.5919071,5.40120332 12.577925,5.35619795 12.5507832,5.32271835 C12.5384461,5.30735066 12.5240527,5.30021566 12.5088369,5.30021566 C12.4911536,5.30131335 12.4759378,5.3089972 12.4636006,5.32710911 L12.4636006,5.32710911 Z" id="Fill-24" fill="#FFFFFF"></path>
                <path d="M17.0664954,3.33895468 C16.9812702,3.25824588 16.9774542,3.12330419 17.0580153,3.03747102 C17.1381524,2.95163786 17.2721382,2.94779458 17.3573634,3.02935744 C17.7398166,3.39276054 18.2274232,3.57254045 18.7158779,3.57296748 C19.241645,3.57254045 19.7652922,3.36372245 20.1553775,2.94822161 C20.4369173,2.64716499 20.5751432,2.26539956 20.5759912,1.88235305 C20.5751432,1.46984142 20.414445,1.05946495 20.0934727,0.754138015 C19.8623895,0.534644249 19.5694015,0.42703252 19.2764135,0.42703252 C18.9588332,0.42703252 18.6446449,0.552579538 18.4101697,0.803246542 C18.2431114,0.980891302 18.1621263,1.20508241 18.1617023,1.43098163 C18.1621263,1.67524318 18.2571036,1.91651551 18.4474822,2.09843057 C18.579772,2.22483165 18.7476783,2.28589704 18.9177046,2.28632407 C19.1004511,2.28589704 19.2810776,2.21372885 19.4159114,2.07024655 C19.5070727,1.97288355 19.5524413,1.85032575 19.5541373,1.72563279 C19.5401451,1.825985 19.4956245,1.92420206 19.4214235,2.00405679 C19.3077899,2.12405241 19.1534518,2.18682592 19.0003857,2.18639889 C18.8579198,2.18682592 18.7137578,2.13344709 18.6026683,2.02754348 C18.4627464,1.89516397 18.3910894,1.71410297 18.3915134,1.53560415 C18.3910894,1.36906218 18.4529943,1.2008121 18.575108,1.0714218 C18.729022,0.906587965 18.9389049,0.822889953 19.1466677,0.822889953 C19.3400144,0.822889953 19.535481,0.894631106 19.6872751,1.0393945 C19.8797737,1.22259066 19.9781431,1.47154954 19.9781431,1.7200814 C19.9785671,1.95025093 19.8937659,2.18212858 19.7245876,2.36361662 C19.5062246,2.59549427 19.2115406,2.71378177 18.9177046,2.71335474 C18.6450689,2.71378177 18.3698892,2.61214847 18.1557662,2.40888187 C17.8776184,2.14454988 17.7368485,1.78669818 17.7372725,1.43098163 C17.7368485,1.10088692 17.8585382,0.767802996 18.1014935,0.50987647 C18.4182258,0.170814116 18.8481677,-0.000425183397 19.2764135,9.21635782e-07 C19.6728589,-0.000425183397 20.0726964,0.146900399 20.3839166,0.443686716 C20.7930822,0.831857597 21.000421,1.35753236 21,1.88235305 C21.000421,2.36916802 20.8214906,2.85939923 20.4636297,3.24116465 C19.9908633,3.74463381 19.3531586,4.00000092 18.7158779,4.00000092 C18.1243898,4.00000092 17.5299337,3.78050439 17.0664954,3.33895468 Z M18.8829361,1.36521891 C18.8375675,1.41347337 18.8159432,1.4736847 18.8155192,1.53560415 C18.8159432,1.60222093 18.8409596,1.66670256 18.8935363,1.71709218 C18.9240647,1.74570324 18.9613772,1.75936822 19.0003857,1.75979525 C19.0415143,1.75936822 19.0822189,1.74356808 19.1127473,1.71111375 C19.1280115,1.69488659 19.1356436,1.67524318 19.1356436,1.65389164 C19.1356436,1.63168605 19.1267395,1.60948045 19.1097792,1.59282626 C19.0245541,1.51169043 19.021586,1.3763217 19.1025711,1.2913426 C19.1186834,1.27426137 19.1369156,1.26059639 19.1564199,1.24992063 C19.1530278,1.24992063 19.1500598,1.24992063 19.1466677,1.24992063 C19.0495704,1.24992063 18.9550171,1.28792636 18.8829361,1.36521891 L18.8829361,1.36521891 Z" id="Fill-25" fill="#FFFFFF"></path>
                <path d="M21.6921682,6 C21.3615098,6.00081566 21.0304401,5.86664121 20.7898491,5.60446599 C20.6097143,5.40855483 20.5196469,5.1595501 20.5196469,4.91219168 C20.5192356,4.63684596 20.6311002,4.35985392 20.849894,4.1594154 C21.0144007,4.00795468 21.2237354,3.93181274 21.4310138,3.93222431 C21.6621457,3.93181274 21.8941001,4.02606411 22.0631307,4.21045108 C22.1918571,4.34956447 22.2551922,4.52777777 22.2551922,4.70311003 C22.2551922,4.89902119 22.1749952,5.0957555 22.0199477,5.23939624 C21.9006804,5.34928759 21.7481004,5.40402747 21.5979881,5.40402747 C21.42978,5.40402747 21.2611607,5.33570551 21.1394258,5.2027658 C21.0440119,5.0994597 20.996305,4.96693157 20.9967162,4.83646132 C20.996305,4.69199742 21.0551161,4.54424089 21.1710933,4.43928849 C21.1920679,4.41994432 21.2146876,4.40265804 21.238541,4.38784123 C21.1990594,4.40595066 21.1620454,4.43105693 21.1279103,4.46233686 C20.9967162,4.58334081 20.9309136,4.74591415 20.9309136,4.91219168 C20.9309136,5.06035979 20.9835557,5.20729315 21.0925414,5.32582764 C21.2533466,5.50074831 21.4709067,5.58841444 21.6921682,5.58841444 C21.8899874,5.58841444 22.0861616,5.51762301 22.2428542,5.37398227 C22.472341,5.16201957 22.5883182,4.87473808 22.5887295,4.5853987 C22.5883182,4.32569294 22.4957832,4.06722192 22.3061893,3.86102131 C22.0314632,3.56262721 21.6592668,3.41240122 21.2841916,3.41198964 C20.9477755,3.41198964 20.6117706,3.53299359 20.3448586,3.77911727 L20.3452698,3.77911727 C20.2617827,3.85608237 20.1314112,3.85073186 20.0545043,3.76718151 C19.9775975,3.68363116 19.9825327,3.55316092 20.0664311,3.47619582 C20.4114838,3.15804598 20.8490715,3 21.2841916,3 C21.769075,3 22.2543697,3.19632274 22.6097041,3.58238296 C22.8704471,3.86719498 23.0004074,4.22732579 23,4.5853987 C23.0004074,4.985041 22.8379571,5.38427172 22.521693,5.67690373 C22.2868597,5.89257063 21.9891027,6 21.6938132,6 C21.6929907,6 21.6925794,6 21.6921682,6 Z M21.4478758,4.74344468 C21.4211434,4.76772778 21.4079829,4.80024245 21.4075716,4.83646132 C21.4079829,4.86815283 21.4182646,4.89860961 21.442118,4.92412745 C21.4519884,4.93524005 21.4630926,4.94470635 21.4746081,4.95293791 C21.4598025,4.88502753 21.4799546,4.8105319 21.534653,4.75908464 C21.5379432,4.75579202 21.5383544,4.75291097 21.5387657,4.75126466 C21.5383544,4.74797204 21.5379432,4.74714888 21.5367094,4.74591415 C21.5231376,4.73109734 21.508332,4.7261584 21.4910588,4.72574682 C21.4762532,4.7261584 21.4622701,4.73068576 21.4478758,4.74344468 L21.4478758,4.74344468 Z" id="Fill-26" fill="#FFFFFF"></path>
                <path d="M17.0925389,5 C10.1402506,10.2896556 11.0377987,12 11.0377987,12 C11.0377987,12 16.9505083,4.94698563 22.9348692,11.9230029 C22.9348692,11.9230029 24.0456751,10.2896556 17.0925389,5 Z" id="Fill-27" fill="#FFFFFF"></path>
                <path d="M17.0925389,5 C10.1402506,10.2896556 11.0377987,12 11.0377987,12 C11.0377987,12 16.9505083,4.94698563 22.9348692,11.9230029 C22.9348692,11.9230029 24.0456751,10.2896556 17.0925389,5 Z" id="Stroke-28" stroke="#FFFFFF" stroke-width="0.455" stroke-linejoin="round"></path>
                <path d="M26.7516064,17 C26.7516064,17 32.3854776,28.0438993 28.8141719,34.4208349 C25.7886527,39.8217805 19.1888663,35.7141971 20.0824331,31.4540128 C20.0824331,31.4540128 20.9074593,36.0184625 24.9636265,35.7141971 C24.9636265,35.7141971 29.3493812,35.3205244 28.1951907,29.4758193 C28.1080341,29.0339323 27.0951558,25.4436001 23.7260873,24.9872019 C23.7260873,24.9872019 27.4391282,24.7587688 26.7516064,17 Z" id="Fill-29" fill="#FFFFFF"></path>
                <path d="M26.7516064,17 C26.7516064,17 32.3854776,28.0438993 28.8141719,34.4208349 C25.7886527,39.8217805 19.1888663,35.7141971 20.0824331,31.4540128 C20.0824331,31.4540128 20.9074593,36.0184625 24.9636265,35.7141971 C24.9636265,35.7141971 29.3493812,35.3205244 28.1951907,29.4758193 C28.1080341,29.0339323 27.0951558,25.4436001 23.7260873,24.9872019 C23.7260873,24.9872019 27.4391282,24.7587688 26.7516064,17 Z" id="Stroke-30" stroke="#FFFFFF" stroke-width="0.455" stroke-linejoin="round"></path>
                <path d="M7.23846144,17 C7.23846144,17 1.62181616,27.9816413 5.18220238,34.3226281 C8.19804901,39.6931269 14.9522801,36.0853321 13.8872433,31.3725309 C13.8872433,31.3725309 13.0647397,35.9112494 9.02055264,35.6086992 C9.02055264,35.6086992 4.64820771,35.2172457 5.7988692,29.4054891 C5.88618112,28.9660931 6.8959625,25.3960008 10.2543081,24.9421755 C10.2543081,24.9421755 6.55304176,24.7150301 7.23846144,17 Z" id="Fill-31" fill="#FFFFFF"></path>
                <path d="M7.23846144,17 C7.23846144,17 1.62181616,27.9816413 5.18220238,34.3226281 C8.19804901,39.6931269 14.9522801,36.0853321 13.8872433,31.3725309 C13.8872433,31.3725309 13.0647397,35.9112494 9.02055264,35.6086992 C9.02055264,35.6086992 4.64820771,35.2172457 5.7988692,29.4054891 C5.88618112,28.9660931 6.8959625,25.3960008 10.2543081,24.9421755 C10.2543081,24.9421755 6.55304176,24.7150301 7.23846144,17 Z" id="Stroke-32" stroke="#FFFFFF" stroke-width="0.455" stroke-linejoin="round"></path>
                <path d="M17.5460526,13 C17.5460526,13 17.9777961,18.486157 21,17.3417404 C21,17.3417404 19.7052126,19.0077468 20.6404352,21.010916 C20.6404352,21.010916 17.6992662,21.1403231 17.6275304,23 L17.5354251,23 C17.4636893,21.1403231 14.3595648,21.010916 14.3595648,21.010916 C15.2956731,19.0077468 14,17.3417404 14,17.3417404 C17.0222039,18.486157 17.4543902,13 17.4543902,13 L17.5460526,13 Z" id="Fill-33" fill="#FFFFFF"></path>
                <path d="M17.5460526,13 C17.5460526,13 17.9777961,18.486157 21,17.3417404 C21,17.3417404 19.7052126,19.0077468 20.6404352,21.010916 C20.6404352,21.010916 17.6992662,21.1403231 17.6275304,23 L17.5354251,23 C17.4636893,21.1403231 14.3595648,21.010916 14.3595648,21.010916 C15.2956731,19.0077468 14,17.3417404 14,17.3417404 C17.0222039,18.486157 17.4543902,13 17.4543902,13 L17.5460526,13 Z" id="Stroke-34" stroke="#FFFFFF" stroke-width="0.455" stroke-linejoin="round"></path>
                <path d="M10,20.4997898 C10,20.7763766 9.77637663,21 9.50021017,21 C9.22362337,21 9,20.7763766 9,20.4997898 C9,20.2236234 9.22362337,20 9.50021017,20 C9.77637663,20 10,20.2236234 10,20.4997898 Z" id="Fill-35" fill="#FFFFFF"></path>
                <path d="M10,20.4997898 C10,20.7763766 9.77637663,21 9.50021017,21 C9.22362337,21 9,20.7763766 9,20.4997898 C9,20.2236234 9.22362337,20 9.50021017,20 C9.77637663,20 10,20.2236234 10,20.4997898 Z" id="Stroke-36" stroke="#FFFFFF" stroke-width="0.455" stroke-linejoin="round"></path>
                <path d="M13,12.5 C13,12.7758621 12.7763766,13 12.5002102,13 C12.2236234,13 12,12.7758621 12,12.5 C12,12.2237174 12.2236234,12 12.5002102,12 C12.7763766,12 13,12.2237174 13,12.5 Z" id="Fill-37" fill="#FFFFFF"></path>
                <path d="M13,12.5 C13,12.7758621 12.7763766,13 12.5002102,13 C12.2236234,13 12,12.7758621 12,12.5 C12,12.2237174 12.2236234,12 12.5002102,12 C12.7763766,12 13,12.2237174 13,12.5 Z" id="Stroke-38" stroke="#FFFFFF" stroke-width="0.455" stroke-linejoin="round"></path>
                <path d="M21,12.5004202 C21,12.7760504 20.7760504,13 20.5,13 C20.2239496,13 20,12.7760504 20,12.5004202 C20,12.2243697 20.2239496,12 20.5,12 C20.7760504,12 21,12.2243697 21,12.5004202 Z" id="Fill-39" fill="#FFFFFF"></path>
                <path d="M21,12.5004202 C21,12.7760504 20.7760504,13 20.5,13 C20.2239496,13 20,12.7760504 20,12.5004202 C20,12.2243697 20.2239496,12 20.5,12 C20.7760504,12 21,12.2243697 21,12.5004202 Z" id="Stroke-40" stroke="#FFFFFF" stroke-width="0.455" stroke-linejoin="round"></path>
                <path d="M25,20.5002102 C25,20.7763766 24.7759563,21 24.4997898,21 C24.2236234,21 24,20.7763766 24,20.5002102 C24,20.2240437 24.2236234,20 24.4997898,20 C24.7759563,20 25,20.2240437 25,20.5002102 Z" id="Fill-41" fill="#FFFFFF"></path>
                <path d="M25,20.5002102 C25,20.7763766 24.7759563,21 24.4997898,21 C24.2236234,21 24,20.7763766 24,20.5002102 C24,20.2240437 24.2236234,20 24.4997898,20 C24.7759563,20 25,20.2240437 25,20.5002102 Z" id="Stroke-42" stroke="#FFFFFF" stroke-width="0.455" stroke-linejoin="round"></path>
                <path d="M10,31.4997898 C10,31.7755359 9.77605042,32 9.5,32 C9.22394958,32 9,31.7755359 9,31.4997898 C9,31.2236234 9.22394958,31 9.5,31 C9.77605042,31 10,31.2236234 10,31.4997898 Z" id="Fill-43" fill="#FFFFFF"></path>
                <path d="M10,31.4997898 C10,31.7755359 9.77605042,32 9.5,32 C9.22394958,32 9,31.7755359 9,31.4997898 C9,31.2236234 9.22394958,31 9.5,31 C9.77605042,31 10,31.2236234 10,31.4997898 Z" id="Stroke-44" stroke="#FFFFFF" stroke-width="0.455" stroke-linejoin="round"></path>
                <path d="M25,31.4997898 C25,31.7755359 24.7763766,32 24.5002102,32 C24.2240437,32 24,31.7755359 24,31.4997898 C24,31.2236234 24.2240437,31 24.5002102,31 C24.7763766,31 25,31.2236234 25,31.4997898 Z" id="Fill-45" fill="#FFFFFF"></path>
                <path d="M25,31.4997898 C25,31.7755359 24.7763766,32 24.5002102,32 C24.2240437,32 24,31.7755359 24,31.4997898 C24,31.2236234 24.2240437,31 24.5002102,31 C24.7763766,31 25,31.2236234 25,31.4997898 Z" id="Stroke-46" stroke="#FFFFFF" stroke-width="0.455" stroke-linejoin="round"></path>
                <path d="M13,25.4997236 C13,25.7766722 12.7759956,26 12.5,26 C12.2234513,26 12,25.7766722 12,25.4997236 C12,25.2238806 12.2234513,25 12.5,25 C12.7759956,25 13,25.2238806 13,25.4997236 Z" id="Fill-47" fill="#FFFFFF"></path>
                <path d="M13,25.4997236 C13,25.7766722 12.7759956,26 12.5,26 C12.2234513,26 12,25.7766722 12,25.4997236 C12,25.2238806 12.2234513,25 12.5,25 C12.7759956,25 13,25.2238806 13,25.4997236 Z" id="Stroke-48" stroke="#FFFFFF" stroke-width="0.346" stroke-linejoin="round"></path>
                <path d="M21,25.4994475 C21,25.7756906 20.7754425,26 20.4994469,26 C20.2234513,26 20,25.7756906 20,25.4994475 C20,25.2237569 20.2234513,25 20.4994469,25 C20.7754425,25 21,25.2237569 21,25.4994475 Z" id="Fill-49" fill="#FFFFFF"></path>
                <path d="M21,25.4994475 C21,25.7756906 20.7754425,26 20.4994469,26 C20.2234513,26 20,25.7756906 20,25.4994475 C20,25.2237569 20.2234513,25 20.4994469,25 C20.7754425,25 21,25.2237569 21,25.4994475 Z" id="Stroke-50" stroke="#FFFFFF" stroke-width="0.346" stroke-linejoin="round"></path>
                <path d="M13,21.5 C13,21.7761069 12.7760134,22 12.4997911,22 C12.2239866,22 12,21.7761069 12,21.5 C12,21.2234754 12.2239866,21 12.4997911,21 C12.7760134,21 13,21.2234754 13,21.5 Z" id="Fill-51" fill="#FFFFFF"></path>
                <path d="M13,21.5 C13,21.7761069 12.7760134,22 12.4997911,22 C12.2239866,22 12,21.7761069 12,21.5 C12,21.2234754 12.2239866,21 12.4997911,21 C12.7760134,21 13,21.2234754 13,21.5 Z" id="Stroke-52" stroke="#FFFFFF" stroke-width="0.346" stroke-linejoin="round"></path>
                <path d="M22,21.5 C22,21.7761069 21.7761069,22 21.5004177,22 C21.2238931,22 21,21.7761069 21,21.5 C21,21.2238931 21.2238931,21 21.5004177,21 C21.7761069,21 22,21.2238931 22,21.5 Z" id="Fill-53" fill="#FFFFFF"></path>
                <path d="M22,21.5 C22,21.7761069 21.7761069,22 21.5004177,22 C21.2238931,22 21,21.7761069 21,21.5 C21,21.2238931 21.2238931,21 21.5004177,21 C21.7761069,21 22,21.2238931 22,21.5 Z" id="Stroke-54" stroke="#FFFFFF" stroke-width="0.346" stroke-linejoin="round"></path>
                <path d="M18,23.5005495 C18,23.7758242 17.7762507,24 17.5002749,24 C17.2237493,24 17,23.7758242 17,23.5005495 C17,23.2241758 17.2237493,23 17.5002749,23 C17.7762507,23 18,23.2241758 18,23.5005495 Z" id="Fill-55" fill="#FFFFFF"></path>
                <path d="M18,23.5005495 C18,23.7758242 17.7762507,24 17.5002749,24 C17.2237493,24 17,23.7758242 17,23.5005495 C17,23.2241758 17.2237493,23 17.5002749,23 C17.7762507,23 18,23.2241758 18,23.5005495 Z" id="Stroke-56" stroke="#FFFFFF" stroke-width="0.263" stroke-linejoin="round"></path>
                <path d="M13,16.5 C13,16.7758242 12.7761276,17 12.5,17 C12.2238724,17 12,16.7758242 12,16.5 C12,16.2236264 12.2238724,16 12.5,16 C12.7761276,16 13,16.2236264 13,16.5 Z" id="Fill-57" fill="#FFFFFF"></path>
                <path d="M13,16.5 C13,16.7758242 12.7761276,17 12.5,17 C12.2238724,17 12,16.7758242 12,16.5 C12,16.2236264 12.2238724,16 12.5,16 C12.7761276,16 13,16.2236264 13,16.5 Z" id="Stroke-58" stroke="#FFFFFF" stroke-width="0.263" stroke-linejoin="round"></path>
                <path d="M22,16.5 C22,16.7763736 21.7758242,17 21.5,17 C21.2241758,17 21,16.7763736 21,16.5 C21,16.2241758 21.2241758,16 21.5,16 C21.7758242,16 22,16.2241758 22,16.5 Z" id="Fill-59" fill="#FFFFFF"></path>
                <path d="M22,16.5 C22,16.7763736 21.7758242,17 21.5,17 C21.2241758,17 21,16.7763736 21,16.5 C21,16.2241758 21.2241758,16 21.5,16 C21.7758242,16 22,16.2241758 22,16.5 Z" id="Stroke-60" stroke="#FFFFFF" stroke-width="0.263" stroke-linejoin="round"></path>
                <path d="M18,11.5 C18,11.7760245 17.7762073,12 17.5001178,12 C17.2237927,12 17,11.7760245 17,11.5 C17,11.2239755 17.2237927,11 17.5001178,11 C17.7762073,11 18,11.2239755 18,11.5 Z" id="Fill-61" fill="#FFFFFF"></path>
                <path d="M18,11.5 C18,11.7760245 17.7762073,12 17.5001178,12 C17.2237927,12 17,11.7760245 17,11.5 C17,11.2239755 17.2237927,11 17.5001178,11 C17.7762073,11 18,11.2239755 18,11.5 Z" id="Stroke-62" stroke="#FFFFFF" stroke-width="0.263" stroke-linejoin="round"></path>
                <path d="M2.3953855,19.8080355 C1.52624069,19.4752683 0.999515655,18.6915674 1.00000033,17.8653085 C1.00000033,17.6004529 1.05335219,17.3306171 1.16733045,17.0716472 C1.46076382,16.4047544 2.14996849,15.999548 2.87700425,16.0000004 C3.11029591,16.0000004 3.34746768,16.0416533 3.57639421,16.129033 C4.16714107,16.3544998 4.52459628,16.8860219 4.52411126,17.4469725 C4.52411126,17.6276176 4.48725021,17.8100736 4.41061802,17.9870968 C4.20933728,18.4452743 3.73499374,18.7232595 3.23494446,18.7228067 C3.07440488,18.7232595 2.91144023,18.6942838 2.75478076,18.6345215 C2.343004,18.4769664 2.09370689,18.1061686 2.09370689,17.7149973 C2.09370689,17.5904925 2.11941262,17.4614603 2.17324916,17.339672 C2.31584323,17.0146014 2.65147281,16.8172047 3.00601793,16.8176575 C3.11999618,16.8176575 3.23542948,16.8375783 3.34649765,16.8801362 C3.64381114,16.9942279 3.82423629,17.2617999 3.82375127,17.5438598 C3.82375127,17.633956 3.80532075,17.7263159 3.76651964,17.8159593 C3.66078662,18.0550085 3.41342956,18.1998867 3.15297712,18.199434 C3.06858472,18.199434 2.98322228,18.1844934 2.90173995,18.1537068 C2.7877617,18.1097906 2.6965791,18.0355405 2.63449732,17.9454443 C2.69366901,18.0636106 2.79891702,18.1618562 2.93811599,18.2157328 C3.03560377,18.2524051 3.13600164,18.2705149 3.23494446,18.2705149 C3.5443833,18.2700622 3.83733166,18.0989247 3.9614952,17.8159593 C4.0138767,17.694171 4.03909742,17.570119 4.03958243,17.4469725 C4.03909742,17.0639506 3.79562047,16.7017549 3.39257396,16.5482745 C3.22330413,16.4826265 3.04918416,16.4527454 2.87700425,16.4527454 C2.34057894,16.4531981 1.83179941,16.7506513 1.61596825,17.2436902 C1.5267257,17.4469725 1.4845295,17.6574987 1.4845295,17.8653085 C1.48501451,18.5136387 1.89727628,19.1284659 2.57969076,19.3892468 C2.86051378,19.4965473 3.15103707,19.5468019 3.43622521,19.5468019 C4.3291357,19.5468019 5.17499984,19.0514993 5.53294006,18.2338426 C5.58386651,18.11794 5.72549056,18.0627051 5.8496541,18.1097906 C5.97284762,18.1573287 6.03250432,18.2899829 5.98206288,18.40498 C5.54652045,19.3987544 4.51974614,20.0000004 3.43622521,20.0000004 C3.08944031,20.0000004 2.73635023,19.9375205 2.3953855,19.8080355 Z M2.90368001,17.3260897 C3.02687353,17.3745333 3.08507519,17.5071875 3.03317871,17.6221846 C3.02929859,17.6312395 3.02687353,17.6411999 3.02687353,17.653424 C3.02687353,17.6873799 3.04918416,17.720883 3.0855602,17.7344653 C3.10738582,17.7430674 3.13066649,17.7471421 3.15297712,17.7471421 C3.22281912,17.7466894 3.29023604,17.7077534 3.31739682,17.6452746 C3.33243225,17.610866 3.33922244,17.5764574 3.33922244,17.5438598 C3.33873743,17.4397286 3.27277554,17.3410302 3.16316242,17.2993777 C3.11078092,17.2790042 3.05888444,17.2699493 3.00601793,17.2699493 C2.94345114,17.2704021 2.88136937,17.2835317 2.82559278,17.3084326 C2.85226854,17.3102436 2.87845929,17.3161293 2.90368001,17.3260897 L2.90368001,17.3260897 Z" id="Fill-63" fill="#FFFFFF"></path>
                <path d="M1.60678052,23.0000003 C1.46062391,23.0000003 1.31258141,22.9745613 1.16736774,22.9221278 C0.452614759,22.6625562 -0.000470738309,21.9321217 3.67034117e-07,21.1461388 C3.67034117e-07,20.9519793 0.0273461653,20.7557431 0.0848658642,20.5621027 C0.37104994,19.60636 1.17774014,18.9994815 2.04477889,19.0000003 C2.2588276,19.0000003 2.4766481,19.0368598 2.69069682,19.1147313 C2.81422273,19.1604159 2.88117189,19.3068143 2.84015374,19.4423107 C2.79960707,19.5783262 2.66618022,19.6525637 2.54265431,19.6079174 C2.37716731,19.5476968 2.20979442,19.5191439 2.04477889,19.5191439 C1.37670173,19.5191439 0.752943023,19.9863728 0.533236632,20.7245945 C0.491275541,20.8652823 0.471473677,21.0070084 0.471002204,21.1461388 C0.471473677,21.7130432 0.798204426,22.2420502 1.31493877,22.4289418 C1.4120622,22.4642435 1.5096571,22.4808561 1.60678052,22.4808561 C1.99810306,22.4808561 2.36443754,22.2062293 2.4940926,21.7732639 C2.51813772,21.6933158 2.52851012,21.6123295 2.52851012,21.5323814 C2.52851012,21.2089552 2.34180684,20.9068138 2.04760772,20.8009086 C1.99904601,20.7827386 1.95001282,20.7744323 1.90192258,20.7728748 C1.93209685,20.7775471 1.96274259,20.7853343 1.99197392,20.7962363 C2.25269845,20.8912395 2.41818546,21.1565217 2.41818546,21.4436079 C2.41818546,21.5142114 2.40828452,21.5858531 2.3861253,21.6569758 C2.2866445,21.98767 2.00847547,22.197923 1.70767573,22.1974039 C1.63365448,22.1974039 1.55774734,22.1849444 1.48419756,22.157949 C1.13295021,22.0307589 0.909943513,21.6715118 0.910414986,21.2852692 C0.909943513,21.1897469 0.924087702,21.0926671 0.951904605,20.9992213 C1.08863176,20.5423752 1.47335368,20.2526933 1.88730692,20.2532124 C1.98914508,20.2526933 2.0933406,20.2708633 2.19517875,20.3072033 C2.68739651,20.4868269 3.00045454,20.9898767 3.00000037,21.5323814 C3.00045454,21.6658012 2.98159562,21.8018167 2.94152042,21.9357557 C2.74633062,22.5862422 2.19800759,23.0000003 1.60772347,23.0000003 C1.60725199,23.0000003 1.60678052,23.0000003 1.60678052,23.0000003 Z M1.75482303,21.3402984 L1.75435155,21.3428941 C1.75482303,21.3454898 1.75670892,21.3512004 1.76189512,21.3527578 C1.84440288,21.3833873 1.90145111,21.4581439 1.91842414,21.54536 C1.92691065,21.5297857 1.93351127,21.512654 1.93916895,21.4944839 C1.94388368,21.4773522 1.94671251,21.4602205 1.94671251,21.4436079 C1.94671251,21.3756001 1.90663731,21.3112264 1.84487436,21.2894224 C1.83638784,21.2868266 1.82978722,21.2857884 1.82224366,21.2852692 C1.79254086,21.2857884 1.76519543,21.3060349 1.75482303,21.3402984 L1.75482303,21.3402984 Z" id="Fill-64" fill="#FFFFFF"></path>
                <path d="M28.0177846,18.4049794 L28.0182697,18.4049794 C27.9673417,18.2899823 28.0265151,18.1573282 28.1506825,18.1102428 C28.2743648,18.0631573 28.4155081,18.1179394 28.4664361,18.233842 C28.8248723,19.0519513 29.6707622,19.546801 30.5627298,19.5472537 C30.8484117,19.546801 31.1379738,19.4965464 31.4202604,19.3892459 C32.1017257,19.1284651 32.514485,18.5136381 32.51497,17.865308 C32.514485,17.657951 32.4727726,17.4469721 32.3835273,17.2432371 C32.1681746,16.7506511 31.6588945,16.453198 31.1219678,16.4527452 C30.9497827,16.4527452 30.7761424,16.4830791 30.6068674,16.5482743 C30.2038086,16.7017547 29.9603243,17.0639503 29.9598392,17.4474249 C29.9598392,17.5701186 29.9845757,17.6937179 30.0379289,17.8155061 C30.1620962,18.0989242 30.4555385,18.2700616 30.7645017,18.2705143 C30.8624775,18.2700616 30.9628784,18.2524045 31.0613393,18.2157322 C31.2000574,18.1623084 31.3043386,18.0649683 31.3644821,17.9472548 C31.3023985,18.0364454 31.2107281,18.1102428 31.0967463,18.154159 C31.0157466,18.1844929 30.9308666,18.1998862 30.8464716,18.1994334 C30.5855262,18.1998862 30.3381616,18.0550079 30.2333954,17.8164116 C30.193623,17.7267682 30.175192,17.6330501 30.175192,17.5438594 C30.175192,17.2608941 30.3556226,16.9937749 30.6519751,16.880136 C30.7630466,16.837578 30.8794535,16.8176573 30.9934352,16.8176573 C31.3479912,16.8172045 31.683631,17.0146011 31.8271995,17.3405772 C31.8795825,17.4619127 31.9057741,17.5895866 31.9057741,17.7149968 C31.9057741,18.1061681 31.6569544,18.4765131 31.24371,18.6349736 C31.0875308,18.6942831 30.9245612,18.7232588 30.7645017,18.7232588 C30.2644372,18.7237115 29.7905643,18.4452737 29.5897624,17.987549 C29.5111878,17.8109787 29.4748106,17.6276172 29.4752957,17.4474249 C29.4748106,16.8860217 29.8327617,16.3544997 30.4225566,16.1294857 C30.651005,16.0416532 30.8891541,16.0000004 31.1219678,16.0000004 C31.8499958,15.999548 32.5392215,16.4047543 32.8326638,17.0716469 C32.9451904,17.3310695 33,17.6004525 33,17.865308 C33.0004837,18.6915667 32.4732576,19.4752674 31.6031162,19.8080346 C31.2626261,19.9379722 30.9095253,20.0000004 30.5627298,20.0000004 C29.4796609,20.000451 28.4533403,19.3987536 28.0177846,18.4049794 Z M30.836771,17.2989247 C30.7266695,17.3410299 30.6611906,17.4401809 30.6602206,17.5438594 C30.6602206,17.5773625 30.667011,17.6099601 30.6815618,17.6443687 C30.7101785,17.7077529 30.7771125,17.746689 30.8464716,17.746689 C30.8682979,17.746689 30.8910942,17.743067 30.9143756,17.7349176 C30.9502677,17.7213353 30.972094,17.6873794 30.972579,17.6529708 C30.972579,17.642105 30.9706389,17.6307864 30.9657886,17.6199205 C30.9153456,17.5035652 30.9750042,17.3722693 31.0991715,17.3251838 C31.1239079,17.3156762 31.1486444,17.3102433 31.1738659,17.3084323 C31.1180876,17.2835314 31.056489,17.2704018 30.9934352,17.2704018 C30.9405671,17.2704018 30.888184,17.2794567 30.836771,17.2989247 L30.836771,17.2989247 Z" id="Fill-65" fill="#FFFFFF"></path>
                <path d="M31.0594057,21.9366506 C31.018859,21.8026945 31,21.6666615 31,21.5327054 C31,20.9906503 31.3125871,20.4864976 31.8052773,20.3073703 C31.9071156,20.2710256 32.0108399,20.2533724 32.1131497,20.2533724 C32.5266323,20.2533724 32.9113549,20.5425723 33.0485538,20.9994769 C33.0768422,21.0944923 33.090515,21.1915845 33.090515,21.2855615 C33.090515,21.6723728 32.8670364,22.0306276 32.5162598,22.1588724 C32.4422384,22.1853521 32.3668026,22.1983323 32.2923098,22.1983323 C31.9919809,22.1983323 31.7128684,21.9880524 31.6148019,21.6588733 C31.5931141,21.5882608 31.5827417,21.5155714 31.5827417,21.4439205 C31.5822702,21.1573167 31.747286,20.8904429 32.0075396,20.7969851 C32.0381854,20.7855625 32.0702456,20.7777743 32.1013629,20.7725822 C32.0528011,20.7736207 32.0028248,20.7829664 31.9533201,20.8011388 C31.6586489,20.9070576 31.4714738,21.2092377 31.4714738,21.5327054 C31.4714738,21.6126637 31.4827892,21.6931412 31.5068344,21.7741379 C31.6360182,22.2071589 32.0014104,22.4813017 32.3936766,22.4813017 C32.4903288,22.4813017 32.5888668,22.4652062 32.6855189,22.4298999 C33.2017828,22.2424652 33.5285141,21.7133904 33.5289856,21.1464133 C33.5285141,21.0067458 33.5091837,20.8644824 33.467694,20.7248149 C33.2470443,19.9864986 32.6237559,19.5192098 31.9561489,19.5192098 C31.7906616,19.5192098 31.6237599,19.5477663 31.4578011,19.6079947 L31.4582726,19.6079947 C31.3342749,19.6526467 31.2008479,19.5789189 31.1603011,19.4423667 C31.1192829,19.3063338 31.1867036,19.1604358 31.3102298,19.1147454 C31.5242789,19.0368639 31.7416283,19 31.9561489,19 C32.8227178,19 33.6284666,19.606437 33.9155942,20.5623023 C33.9735854,20.7559675 34.0004594,20.952748 34,21.1464133 C34.0004594,21.9319777 33.5473731,22.6630251 32.8335617,22.92263 C32.6878763,22.9755894 32.5398335,23 32.3936766,23 C31.8029199,23.0010307 31.2536529,22.5872205 31.0594057,21.9366506 Z M32.1551109,21.2902344 C32.0933478,21.3120412 32.054687,21.3753848 32.0542155,21.4439205 C32.0542155,21.4594968 32.0556299,21.4761115 32.0622305,21.4948031 C32.0674167,21.5129754 32.0744889,21.5301093 32.0825039,21.5451664 C32.0990055,21.4584584 32.1560538,21.3836922 32.2380903,21.353578 C32.2423335,21.3525396 32.2456339,21.3457898 32.2456339,21.3426746 C32.2456339,21.3426746 32.2451624,21.3395593 32.2456339,21.3405977 C32.2352614,21.3058107 32.206973,21.2860807 32.1777416,21.2855615 C32.171141,21.2855615 32.1645404,21.2865999 32.1551109,21.2902344 L32.1551109,21.2902344 Z" id="Fill-66" fill="#FFFFFF"></path>
                <polygon id="Fill-67" fill="#FFFFFF" points="19 42 16 41.9995334 17.501316 36"></polygon>
                <polygon id="Stroke-68" stroke="#FFFFFF" stroke-width="0.101" stroke-linecap="round" stroke-linejoin="round" points="19 42 16 41.9995334 17.501316 36"></polygon>
                <polygon id="Fill-69" fill="#FFFFFF" points="17 31 16 30.9995335 16.5007022 28"></polygon>
                <polygon id="Stroke-70" stroke="#FFFFFF" stroke-width="0.05" stroke-linecap="round" stroke-linejoin="round" points="17 31 16 30.9995335 16.5007022 28"></polygon>
                <polygon id="Fill-71" fill="#FFFFFF" points="7 14.0320086 7.74224305 13 10 15"></polygon>
                <polygon id="Stroke-72" stroke="#FFFFFF" stroke-width="0.05" stroke-linecap="round" stroke-linejoin="round" points="7 14.0320086 7.74224305 13 10 15"></polygon>
                <polygon id="Fill-73" fill="#FFFFFF" points="26 14.032646 25.2581219 13 23 15"></polygon>
                <polygon id="Stroke-74" stroke="#FFFFFF" stroke-width="0.05" stroke-linecap="round" stroke-linejoin="round" points="26 14.032646 25.2581219 13 23 15"></polygon>
                <polygon id="Fill-75" fill="#FFFFFF" points="9 17.0324382 9.74224305 16 12 18"></polygon>
                <polygon id="Stroke-76" stroke="#FFFFFF" stroke-width="0.05" stroke-linecap="round" stroke-linejoin="round" points="9 17.0324382 9.74224305 16 12 18"></polygon>
                <polygon id="Fill-77" fill="#FFFFFF" points="25 17.0324382 24.2582418 16 22 18"></polygon>
                <polygon id="Stroke-78" stroke="#FFFFFF" stroke-width="0.05" stroke-linecap="round" stroke-linejoin="round" points="25 17.0324382 24.2582418 16 22 18"></polygon>
                <polygon id="Fill-79" fill="#FFFFFF" points="18.3771609 29 19 28.2177445 18 25"></polygon>
                <polygon id="Stroke-80" stroke="#FFFFFF" stroke-width="0.05" stroke-linecap="round" stroke-linejoin="round" points="18.3771609 29 19 28.2177445 18 25"></polygon>
                <polygon id="Fill-81" fill="#FFFFFF" points="15.6229907 29 15 28.2176222 16 25"></polygon>
                <polygon id="Stroke-82" stroke="#FFFFFF" stroke-width="0.05" stroke-linecap="round" stroke-linejoin="round" points="15.6229907 29 15 28.2176222 16 25"></polygon>
                <polygon id="Fill-83" fill="#FFFFFF" points="10.3122208 27 11 28.0991957 8 29"></polygon>
                <polygon id="Stroke-84" stroke="#FFFFFF" stroke-width="0.05" stroke-linecap="round" stroke-linejoin="round" points="10.3122208 27 11 28.0991957 8 29"></polygon>
                <polygon id="Fill-85" fill="#FFFFFF" points="23.6880383 27 23 28.0991957 26 29"></polygon>
                <polygon id="Stroke-86" stroke="#FFFFFF" stroke-width="0.05" stroke-linecap="round" stroke-linejoin="round" points="23.6880383 27 23 28.0991957 26 29"></polygon>
                <polygon id="Fill-87" fill="#FFFFFF" points="17 36 18 36 18 35 17 35"></polygon>
                <polygon id="Stroke-88" stroke="#FFFFFF" stroke-width="0.024" stroke-linecap="round" stroke-linejoin="round" points="17 36 18 36 18 35 17 35"></polygon>
                <path d="M18,3.5 C18,3.77639296 17.7756598,4 17.5,4 C17.223607,4 17,3.77639296 17,3.5 C17,3.22434018 17.223607,3 17.5,3 C17.7756598,3 18,3.22434018 18,3.5 Z" id="Fill-89" fill="#FFFFFF"></path>
                <path d="M18,3.5 C18,3.77639296 17.7756598,4 17.5,4 C17.223607,4 17,3.77639296 17,3.5 C17,3.22434018 17.223607,3 17.5,3 C17.7756598,3 18,3.22434018 18,3.5 Z" id="Stroke-90" stroke="#FFFFFF" stroke-width="0.197" stroke-linejoin="round"></path>
                <polygon id="Fill-91" fill="#FFFFFF" points="10.1912596 26 10 25.3819557 10.5002571 25 11 25.3819557 10.8092545 26"></polygon>
                <polygon id="Stroke-92" stroke="#FFFFFF" stroke-width="0.025" stroke-linejoin="round" points="10.1912596 26 10 25.3819557 10.5002571 25 11 25.3819557 10.8092545 26"></polygon>
                <polygon id="Fill-93" fill="#FFFFFF" points="9.19116136 27 9 26.3819557 9.5 26 10 26.3819557 9.80883864 27"></polygon>
                <polygon id="Stroke-94" stroke="#FFFFFF" stroke-width="0.025" stroke-linejoin="round" points="9.19116136 27 9 26.3819557 9.5 26 10 26.3819557 9.80883864 27"></polygon>
                <polygon id="Fill-95" fill="#FFFFFF" points="7.19125964 28 7 27.3824959 7.49974293 27 8 27.3824959 7.8092545 28"></polygon>
                <polygon id="Stroke-96" stroke="#FFFFFF" stroke-width="0.025" stroke-linejoin="round" points="7.19125964 28 7 27.3824959 7.49974293 27 8 27.3824959 7.8092545 28"></polygon>
                <polygon id="Fill-97" fill="#FFFFFF" points="23.8087404 26 24 25.3819557 23.4997429 25 23 25.3819557 23.1907455 26"></polygon>
                <polygon id="Stroke-98" stroke="#FFFFFF" stroke-width="0.025" stroke-linejoin="round" points="23.8087404 26 24 25.3819557 23.4997429 25 23 25.3819557 23.1907455 26"></polygon>
                <polygon id="Fill-99" fill="#FFFFFF" points="24.8087404 27 25 26.3821622 24.4997429 26 24 26.3821622 24.1907455 27"></polygon>
                <polygon id="Stroke-100" stroke="#FFFFFF" stroke-width="0.025" stroke-linejoin="round" points="24.8087404 27 25 26.3821622 24.4997429 26 24 26.3821622 24.1907455 27"></polygon>
                <polygon id="Fill-101" fill="#FFFFFF" points="26.8083248 28 27 27.3819557 26.5 27 26 27.3819557 26.1906475 28"></polygon>
                <polygon id="Stroke-102" stroke="#FFFFFF" stroke-width="0.025" stroke-linejoin="round" points="26.8083248 28 27 27.3819557 26.5 27 26 27.3819557 26.1906475 28"></polygon>
                <path d="M15,3.5003663 C15,3.77655678 14.776393,4 14.5,4 C14.2243402,4 14,3.77655678 14,3.5003663 C14,3.22417582 14.2243402,3 14.5,3 C14.776393,3 15,3.22417582 15,3.5003663 Z" id="Fill-103" fill="#FFFFFF"></path>
                <path d="M15,3.5003663 C15,3.77655678 14.776393,4 14.5,4 C14.2243402,4 14,3.77655678 14,3.5003663 C14,3.22417582 14.2243402,3 14.5,3 C14.776393,3 15,3.22417582 15,3.5003663 Z" id="Stroke-104" stroke="#FFFFFF" stroke-width="0.197" stroke-linejoin="round"></path>
                <path d="M19,3.5 C19,3.77639296 18.7758242,4 18.5003663,4 C18.2241758,4 18,3.77639296 18,3.5 C18,3.22434018 18.2241758,3 18.5003663,3 C18.7758242,3 19,3.22434018 19,3.5 Z" id="Fill-105" fill="#FFFFFF"></path>
                <path d="M19,3.5 C19,3.77639296 18.7758242,4 18.5003663,4 C18.2241758,4 18,3.77639296 18,3.5 C18,3.22434018 18.2241758,3 18.5003663,3 C18.7758242,3 19,3.22434018 19,3.5 Z" id="Stroke-106" stroke="#FFFFFF" stroke-width="0.197" stroke-linejoin="round"></path>
                <path d="M4,19.5007331 C4,19.7771261 3.77582418,20 3.5003663,20 C3.22490842,20 3,19.7771261 3,19.5007331 C3,19.2243402 3.22490842,19 3.5003663,19 C3.77582418,19 4,19.2243402 4,19.5007331 Z" id="Fill-107" fill="#FFFFFF"></path>
                <path d="M4,19.5007331 C4,19.7771261 3.77582418,20 3.5003663,20 C3.22490842,20 3,19.7771261 3,19.5007331 C3,19.2243402 3.22490842,19 3.5003663,19 C3.77582418,19 4,19.2243402 4,19.5007331 Z" id="Stroke-108" stroke="#FFFFFF" stroke-width="0.197" stroke-linejoin="round"></path>
                <path d="M31,19.5 C31,19.776393 30.7750916,20 30.4996337,20 C30.2234432,20 30,19.776393 30,19.5 C30,19.2243402 30.2234432,19 30.4996337,19 C30.7750916,19 31,19.2243402 31,19.5 Z" id="Fill-109" fill="#FFFFFF"></path>
                <path d="M31,19.5 C31,19.776393 30.7750916,20 30.4996337,20 C30.2234432,20 30,19.776393 30,19.5 C30,19.2243402 30.2234432,19 30.4996337,19 C30.7750916,19 31,19.2243402 31,19.5 Z" id="Stroke-110" stroke="#FFFFFF" stroke-width="0.197" stroke-linejoin="round"></path>
                <path d="M11,45.4992669 C11,45.7756598 10.7752562,46 10.5,46 C10.2240117,46 10,45.7756598 10,45.4992669 C10,45.223607 10.2240117,45 10.5,45 C10.7752562,45 11,45.223607 11,45.4992669 Z" id="Fill-111" fill="#FFFFFF"></path>
                <path d="M11,45.4992669 C11,45.7756598 10.7752562,46 10.5,46 C10.2240117,46 10,45.7756598 10,45.4992669 C10,45.223607 10.2240117,45 10.5,45 C10.7752562,45 11,45.223607 11,45.4992669 Z" id="Stroke-112" stroke="#FFFFFF" stroke-width="0.197" stroke-linejoin="round"></path>
                <path d="M24,45.5 C24,45.7759883 23.776393,46 23.5,46 C23.2243402,46 23,45.7759883 23,45.5 C23,45.2247438 23.2243402,45 23.5,45 C23.776393,45 24,45.2247438 24,45.5 Z" id="Fill-113" fill="#FFFFFF"></path>
                <path d="M24,45.5 C24,45.7759883 23.776393,46 23.5,46 C23.2243402,46 23,45.7759883 23,45.5 C23,45.2247438 23.2243402,45 23.5,45 C23.776393,45 24,45.2247438 24,45.5 Z" id="Stroke-114" stroke="#FFFFFF" stroke-width="0.197" stroke-linejoin="round"></path>
                <polygon id="Fill-115" fill="#FFFFFF" points="15 43 15.5001764 42 16 43"></polygon>
                <polygon id="Stroke-116" stroke="#FFFFFF" stroke-width="0.039" stroke-linejoin="round" points="15 43 15.5001764 42 16 43"></polygon>
                <polygon id="Fill-117" fill="#FFFFFF" points="18 43 18.4998236 42 19 43"></polygon>
                <polygon id="Stroke-118" stroke="#FFFFFF" stroke-width="0.039" stroke-linejoin="round" points="18 43 18.4998236 42 19 43"></polygon>
                <polygon id="Fill-119" fill="#FFFFFF" points="15 10 15.5001764 11 16 10"></polygon>
                <polygon id="Stroke-120" stroke="#FFFFFF" stroke-width="0.039" stroke-linejoin="round" points="15 10 15.5001764 11 16 10"></polygon>
                <polygon id="Fill-121" fill="#FFFFFF" points="18 10 18.5003526 11 19 10"></polygon>
                <polygon id="Stroke-122" stroke="#FFFFFF" stroke-width="0.039" stroke-linejoin="round" points="18 10 18.5003526 11 19 10"></polygon>
                <polygon id="Fill-123" fill="#FFFFFF" points="22.8760453 20 22 20.118418 23 21"></polygon>
                <polygon id="Stroke-124" stroke="#FFFFFF" stroke-width="0.033" stroke-linecap="round" stroke-linejoin="round" points="22.8760453 20 22 20.118418 23 21"></polygon>
                <polygon id="Fill-125" fill="#FFFFFF" points="24 21 24.0632319 22 25 21.1681223"></polygon>
                <polygon id="Stroke-126" stroke="#FFFFFF" stroke-width="0.033" stroke-linecap="round" stroke-linejoin="round" points="24 21 24.0632319 22 25 21.1681223"></polygon>
                <polygon id="Fill-127" fill="#FFFFFF" points="11.1239547 20 12 20.118418 11 21"></polygon>
                <polygon id="Stroke-128" stroke="#FFFFFF" stroke-width="0.033" stroke-linecap="round" stroke-linejoin="round" points="11.1239547 20 12 20.118418 11 21"></polygon>
                <polygon id="Fill-129" fill="#FFFFFF" points="10 21 9.93675334 22 9 21.1681223"></polygon>
                <polygon id="Stroke-130" stroke="#FFFFFF" stroke-width="0.033" stroke-linecap="round" stroke-linejoin="round" points="10 21 9.93675334 22 9 21.1681223"></polygon>
                <polygon id="Fill-131" fill="#FFFFFF" points="13 14 13.0630124 15 14 14.1675764"></polygon>
                <polygon id="Stroke-132" stroke="#FFFFFF" stroke-width="0.033" stroke-linecap="round" stroke-linejoin="round" points="13 14 13.0630124 15 14 14.1675764"></polygon>
                <polygon id="Fill-133" fill="#FFFFFF" points="9 33 9.06301242 34 10 33.1671218"></polygon>
                <polygon id="Stroke-134" stroke="#FFFFFF" stroke-width="0.033" stroke-linecap="round" stroke-linejoin="round" points="9 33 9.06301242 34 10 33.1671218"></polygon>
                <polygon id="Fill-135" fill="#FFFFFF" points="7.87555337 31 7 31.118418 8 32"></polygon>
                <polygon id="Stroke-136" stroke="#FFFFFF" stroke-width="0.033" stroke-linecap="round" stroke-linejoin="round" points="7.87555337 31 7 31.118418 8 32"></polygon>
                <polygon id="Fill-137" fill="#FFFFFF" points="26.1244466 31 27 31.1181563 26 32"></polygon>
                <polygon id="Stroke-138" stroke="#FFFFFF" stroke-width="0.033" stroke-linecap="round" stroke-linejoin="round" points="26.1244466 31 27 31.1181563 26 32"></polygon>
                <polygon id="Fill-139" fill="#FFFFFF" points="25 33 24.9369876 34 24 33.1675764"></polygon>
                <polygon id="Stroke-140" stroke="#FFFFFF" stroke-width="0.033" stroke-linecap="round" stroke-linejoin="round" points="25 33 24.9369876 34 24 33.1675764"></polygon>
                <polygon id="Fill-141" fill="#FFFFFF" points="21 14 20.9369728 15 20 14.1675764"></polygon>
                <polygon id="Stroke-142" stroke="#FFFFFF" stroke-width="0.033" stroke-linecap="round" stroke-linejoin="round" points="21 14 20.9369728 15 20 14.1675764"></polygon>
                <polygon id="Fill-143" fill="#FFFFFF" points="15.4794157 25 16 24.7550261 15 24"></polygon>
                <polygon id="Stroke-144" stroke="#FFFFFF" stroke-width="0.033" stroke-linecap="round" stroke-linejoin="round" points="15.4794157 25 16 24.7550261 15 24"></polygon>
                <polygon id="Fill-145" fill="#FFFFFF" points="18.5204251 25 18 24.7550261 19 24"></polygon>
                <polygon id="Stroke-146" stroke="#FFFFFF" stroke-width="0.033" stroke-linecap="round" stroke-linejoin="round" points="18.5204251 25 18 24.7550261 19 24"></polygon>
                <path d="M14,30.5002355 C14,30.77626 13.7762073,31 13.5001178,31 C13.2240283,31 13,30.77626 13,30.5002355 C13,30.22374 13.2240283,30 13.5001178,30 C13.7762073,30 14,30.22374 14,30.5002355 Z" id="Fill-147" fill="#FFFFFF"></path>
                <path d="M14,30.5002355 C14,30.77626 13.7762073,31 13.5001178,31 C13.2240283,31 13,30.77626 13,30.5002355 C13,30.22374 13.2240283,30 13.5001178,30 C13.7762073,30 14,30.22374 14,30.5002355 Z" id="Stroke-148" stroke="#FFFFFF" stroke-width="0.263" stroke-linejoin="round"></path>
                <path d="M21,30.5002355 C21,30.77626 20.7762073,31 20.5001178,31 C20.2237927,31 20,30.77626 20,30.5002355 C20,30.2239755 20.2237927,30 20.5001178,30 C20.7762073,30 21,30.2239755 21,30.5002355 Z" id="Fill-149" fill="#FFFFFF"></path>
                <path d="M21,30.5002355 C21,30.77626 20.7762073,31 20.5001178,31 C20.2237927,31 20,30.77626 20,30.5002355 C20,30.2239755 20.2237927,30 20.5001178,30 C20.7762073,30 21,30.2239755 21,30.5002355 Z" id="Stroke-150" stroke="#FFFFFF" stroke-width="0.263" stroke-linejoin="round"></path>
                <path d="M10,23.5002089 C10,23.7760134 9.77610693,24 9.5,24 C9.22431078,24 9,23.7760134 9,23.5002089 C9,23.2239866 9.22431078,23 9.5,23 C9.77610693,23 10,23.2239866 10,23.5002089 Z" id="Fill-151" fill="#FFFFFF"></path>
                <path d="M10,23.5002089 C10,23.7760134 9.77610693,24 9.5,24 C9.22431078,24 9,23.7760134 9,23.5002089 C9,23.2239866 9.22431078,23 9.5,23 C9.77610693,23 10,23.2239866 10,23.5002089 Z" id="Stroke-152" stroke="#FFFFFF" stroke-width="0.346" stroke-linejoin="round"></path>
                <path d="M25,23.5002089 C25,23.7760134 24.7761069,24 24.5,24 C24.2243108,24 24,23.7760134 24,23.5002089 C24,23.2239866 24.2243108,23 24.5,23 C24.7761069,23 25,23.2239866 25,23.5002089 Z" id="Fill-153" fill="#FFFFFF"></path>
                <path d="M25,23.5002089 C25,23.7760134 24.7761069,24 24.5,24 C24.2243108,24 24,23.7760134 24,23.5002089 C24,23.2239866 24.2243108,23 24.5,23 C24.7761069,23 25,23.2239866 25,23.5002089 Z" id="Stroke-154" stroke="#FFFFFF" stroke-width="0.346" stroke-linejoin="round"></path>
            </g>
        </g>
    </g>
</svg>