<?xml version="1.0" encoding="UTF-8"?>
<svg width="102px" height="102px" viewBox="0 0 102 102" version="1.1" xmlns="http://www.w3.org/2000/svg" xmlns:xlink="http://www.w3.org/1999/xlink">
    <!-- Generator: Sketch 60 (88103) - https://sketch.com -->
    <title>iconBackground</title>
    <desc>Created with Sketch.</desc>
    <g id="goooop" stroke="none" stroke-width="1" fill="none" fill-rule="evenodd">
        <g id="iconBackground" transform="translate(1.000000, 1.000000)">
            <g>
                <rect id="Solid" stroke="#000000" stroke-width="0.5" fill="#D5415C" x="0" y="0" width="100" height="100"></rect>
                <g id="Behind-icon" transform="translate(34.344295, 25.937867)" fill="#D58B41" fill-rule="nonzero">
                    <path d="M18.8691273,0.0595295162 C23.0110513,0.216767255 25.892679,6.38502284 21.7254799,9.42295705 C21.7254799,9.42295705 26.3482295,11.85522 25.4708509,15.6572605 C25.1871046,16.8870272 24.4377643,17.9851639 23.4099989,18.7351027 C23.4099989,18.7351027 23.3666986,22.8552104 23.3666986,22.8552104 L30.7237487,35.0065482 L30.859037,35.2569712 C32.9778222,39.6022933 29.7960194,45.6629967 24.4303813,45.7954249 C18.733706,45.8423834 13.0366315,45.7962896 7.33969004,45.7962896 C2.41769652,45.7557164 -1.79067445,40.0032363 0.866736453,35.1289329 C0.889617072,35.0868964 0.91442658,35.0459906 0.9383049,35.0044863 L8.29508889,22.8538136 L8.29508889,18.7658319 C7.9097101,18.498448 7.8606897,18.4367235 7.6743856,18.2589331 C5.20534071,15.9032271 5.79498223,11.0856597 9.33575795,9.63839404 C9.33575795,9.63839404 9.09298394,7.7838667 9.91242935,6.35801838 C10.6978864,4.99130051 12.1668354,4.05984649 13.7434697,3.91990224 C13.7434697,3.91990224 13.9734731,3.12140857 14.3269254,2.53961563 C15.2805949,0.970031804 16.7768144,0.0329906593 18.8691273,0.0595295162 Z" id="Path"></path>
                </g>
            </g>
        </g>
    </g>
</svg>