<?xml version="1.0" encoding="UTF-8"?>
<svg width="32px" height="46px" viewBox="0 0 32 46" version="1.1" xmlns="http://www.w3.org/2000/svg" xmlns:xlink="http://www.w3.org/1999/xlink">
    <!-- Generator: Sketch 60 (88103) - https://sketch.com -->
    <title>iconFlatForeground</title>
    <desc>Created with Sketch.</desc>
    <defs>
        <path d="M18.9717548,0.0676401722 C23.113703,0.224724263 25.9954564,6.39326858 21.8281493,9.43140169 C21.8281493,9.43140169 26.4505072,11.8630352 25.5735131,15.6654564 C25.2896346,16.8953614 24.5401393,17.9935413 23.5124007,18.7430366 L23.4694316,22.8631481 L30.8263205,35.0149761 L30.9615678,35.2650427 C33.080442,39.6105663 29.8986087,45.6713354 24.5330951,45.803765 C18.8358031,45.8502563 13.1392154,45.8044694 7.44192341,45.8044694 C2.52019003,45.7636135 -1.68797301,40.0113772 0.969072689,35.1368395 C0.992318317,35.0952792 1.01697277,35.0544232 1.04092281,35.0128629 L8.3978118,22.8617392 L8.3978118,18.7740308 C8.01179349,18.5063539 7.963189,18.44507 7.77651956,18.2668535 C5.30755213,15.9112965 5.89714578,11.0938163 9.43822974,9.64624764 C9.43822974,9.64624764 9.19520727,7.79223272 10.015144,6.36650089 C10.8005644,4.99923533 12.2692654,4.06800139 13.8457417,3.92782321 C13.8457417,3.92782321 14.0760847,3.12972332 14.4297,2.54787821 C15.3827707,0.978446133 16.8789439,0.0408724796 18.9717548,0.0676401722 Z" id="path-1"></path>
    </defs>
    <g id="goooop" stroke="none" stroke-width="1" fill="none" fill-rule="evenodd">
        <g id="iconFlatForeground" transform="translate(0.259259, -0.074074)">
            <g transform="translate(0.000000, -0.000000)">
                <mask id="mask-2" fill="white">
                    <use xlink:href="#path-1"></use>
                </mask>
                <g id="Path"></g>
                <g id="Group" mask="url(#mask-2)">
                    <g transform="translate(-0.329865, -0.334580)">
                        <g id="Backing" transform="translate(0.479380, 0.332150)">
                            <path d="M18.8691454,0.0595295732 C23.0110734,0.216767463 25.8927038,6.38502895 21.7255007,9.42296607 C21.7255007,9.42296607 26.3482547,11.8552314 25.4708753,15.6572755 C25.1871287,16.8870434 24.4377877,17.9851811 23.4100213,18.7351207 C23.4100213,18.7351207 23.366721,22.8552323 23.366721,22.8552323 L30.7237781,35.0065817 L30.8590665,35.257005 C32.9778537,39.6023313 29.7960479,45.6630404 24.4304047,45.7954688 C18.7337239,45.8424273 13.036644,45.7963335 7.33969707,45.7963335 C2.41769883,45.7557602 -1.79067617,40.0032746 0.866737283,35.1289665 C0.889617924,35.08693 0.914427455,35.0460242 0.938305798,35.0045198 L8.29509683,22.8538355 L8.29509683,18.7658499 C7.90971767,18.4984657 7.86069723,18.4367412 7.67439295,18.2589506 C5.2053457,15.9032423 5.79498778,11.0856703 9.33576689,9.63840327 C9.33576689,9.63840327 9.09299265,7.78387415 9.91243884,6.35802447 C10.6978966,4.99130529 12.1668471,4.05985038 13.7434828,3.919906 C13.7434828,3.919906 13.9734865,3.12141155 14.3269391,2.53961806 C15.2806096,0.970032733 16.7768305,0.0329906908 18.8691454,0.0595295732 Z" id="Path" fill="#EEFCF6" fill-rule="nonzero"></path>
                        </g>
                        <g id="Top" transform="translate(3.624965, 3.535364)">
                            <path d="M10.9624873,7.32579575 C11.9137632,7.32579575 12.6855193,6.55463835 12.6855193,5.6027638 C12.6855193,4.65095576 11.9139628,3.87973185 10.9628199,3.87973185 C10.0110118,3.87973185 9.24012049,4.65088925 9.24012049,5.6027638 C9.24012049,6.55457183 10.011677,7.32586226 10.963485,7.32586226 M15.544269,4.01349048 C16.6430719,4.01349048 17.5343526,3.12287485 17.5343526,2.024072 C17.5343526,0.925269154 16.643737,0.035318663 15.5449342,0.035318663 C14.4461313,0.035318663 13.5555157,0.925934289 13.5555157,2.02473714 C13.5555157,3.12353999 14.4467965,4.01415561 15.5449342,4.01415561 M18.1289832,35.5468708 L7.13430341,35.5468708 C5.90446899,35.5468708 5.18080222,34.1667159 5.879859,33.1550457 L11.5035745,25.0164551 C12.1174941,24.1278349 13.4364566,24.1411376 14.0310871,25.0430605 L19.4020514,33.1823162 C20.0718423,34.1966469 19.3441847,35.548201 18.1296484,35.548201 M24.8195752,33.4556867 L17.0042401,20.5474137 L17.0042401,13.3373515 L17.1944687,13.3373515 C18.325198,13.3373515 19.2417539,12.4201304 19.2417539,11.2894011 C19.2417539,10.1586718 18.3245329,9.2421159 17.1938036,9.2421159 L8.08271926,9.2421159 C6.95198993,9.2421159 6.03516799,10.1593369 6.03516799,11.2900662 C6.03516799,12.4207956 6.95198993,13.3386817 8.08271926,13.3386817 L8.2722827,13.3386817 L8.2722827,20.5460169 L0.457213728,33.4536247 C-0.912299024,36.2035585 1.08816069,39.4338526 4.16015272,39.4338526 L21.1137761,39.4338526 C24.1860342,39.4338526 26.1860948,36.2035585 24.8172472,33.4536247" id="Shape" fill="#20293E" fill-rule="nonzero"></path>
                        </g>
                    </g>
                </g>
            </g>
        </g>
    </g>
</svg>