<?xml version="1.0" encoding="UTF-8"?>
<svg width="30px" height="45px" viewBox="0 0 30 45" version="1.1" xmlns="http://www.w3.org/2000/svg" xmlns:xlink="http://www.w3.org/1999/xlink">
    <!-- Generator: Sketch 60 (88103) - https://sketch.com -->
    <title>iconSilhouette</title>
    <desc>Created with Sketch.</desc>
    <g id="goooop" stroke="none" stroke-width="1" fill="none" fill-rule="evenodd">
        <g id="iconSilhouette" transform="translate(0.185185, -0.074074)" fill="#FFFFFF">
            <g id="Icon1">
                <path d="M12.940219,8.41854285 C14.0050917,8.41854285 14.869007,7.55529762 14.869007,6.48975489 C14.869007,5.42428662 14.005315,4.56096694 12.9405913,4.56096694 C11.875123,4.56096694 11.0121756,5.42421216 11.0121756,6.48975489 C11.0121756,7.55522317 11.8758676,8.41861731 12.9413359,8.41861731 M18.0691346,4.71069836 C19.2991511,4.71069836 20.2968642,3.71372979 20.2968642,2.48371331 C20.2968642,1.25369682 19.2998957,0.257472818 18.0698792,0.257472818 C16.8398627,0.257472818 15.8428941,1.25444139 15.8428941,2.48445787 C15.8428941,3.71447436 16.8406073,4.71144292 18.0698792,4.71144292 M20.9625027,40.00964 L8.65489224,40.00964 C7.27819703,40.00964 6.46811353,38.4646737 7.25064823,37.3321949 L13.5459203,28.2217338 C14.233151,27.2269989 15.7096175,27.2418902 16.375256,28.2515163 L22.3875944,37.3627219 C23.1373684,38.498179 22.3228175,40.0111291 20.9632473,40.0111291 M28.4520522,37.6687369 L19.7034483,23.2190215 L19.7034483,15.147969 L19.916393,15.147969 C21.1821485,15.147969 22.208155,14.1212179 22.208155,12.8554625 C22.208155,11.589707 21.1814039,10.5637005 19.9156485,10.5637005 L9.71656324,10.5637005 C8.45080778,10.5637005 7.42450347,11.5904516 7.42450347,12.856207 C7.42450347,14.1219625 8.45080778,15.1494581 9.71656324,15.1494581 L9.92876342,15.1494581 L9.92876342,23.2174579 L1.18045731,37.6664288 C-0.35259592,40.7447461 1.88674886,44.3607861 5.32558309,44.3607861 L24.3037248,44.3607861 C27.7428569,44.3607861 29.9817549,40.7447461 28.4494463,37.6664288" fill-rule="nonzero"></path>
            </g>
        </g>
    </g>
</svg>